<svg width="19" height="21" viewBox="0 0 19 21" fill="none" xmlns="http://www.w3.org/2000/svg">
<path fill-rule="evenodd" clip-rule="evenodd" d="M9.97248 0.619235C9.76807 0.460255 9.48185 0.460255 9.27745 0.619235L0.786884 7.22301C0.649004 7.33025 0.568359 7.49514 0.568359 7.66981V18.0472C0.568359 18.6977 0.826782 19.3216 1.28678 19.7816C1.74677 20.2416 2.37066 20.5 3.02119 20.5H16.2287C16.8793 20.5 17.5032 20.2416 17.9631 19.7816C18.4231 19.3216 18.6816 18.6977 18.6816 18.0472V7.66981C18.6816 7.49514 18.6009 7.33025 18.463 7.22301L9.97248 0.619235ZM1.70043 18.0472V7.94665L9.62496 1.78313L17.5495 7.94665V18.0472C17.5495 18.3975 17.4103 18.7334 17.1626 18.9811C16.915 19.2288 16.579 19.3679 16.2287 19.3679H13.0212V11.2261C13.0212 10.9135 12.7678 10.6601 12.4552 10.6601H6.79477C6.48216 10.6601 6.22874 10.9135 6.22874 11.2261V19.3679H3.02119C2.6709 19.3679 2.33496 19.2288 2.08727 18.9811C1.83959 18.7334 1.70043 18.3975 1.70043 18.0472ZM7.36081 19.3679H11.8891V11.7922H7.36081V19.3679Z" fill="#3A79FF"/>
</svg>
