<svg width="24" height="24" viewBox="0 0 24 24" fill="none" xmlns="http://www.w3.org/2000/svg">
<path fill-rule="evenodd" clip-rule="evenodd" d="M2.64925 6.21013C2.64925 5.42466 3.23567 4.85482 3.87924 4.85482H20.1208C20.7643 4.85482 21.3507 5.42466 21.3507 6.21013V8.92945H2.64925V6.21013ZM1.5 9.50408V6.21013C1.5 4.86385 2.52949 3.70557 3.87924 3.70557H20.1208C21.4705 3.70557 22.5 4.86385 22.5 6.21013V9.50408V17.7897C22.5 19.136 21.4705 20.2943 20.1208 20.2943H3.87924C2.52949 20.2943 1.5 19.136 1.5 17.7897V9.50408ZM21.3507 10.0787V17.7897C21.3507 18.5752 20.7643 19.145 20.1208 19.145H3.87924C3.23567 19.145 2.64925 18.5752 2.64925 17.7897V10.0787H21.3507Z" fill="#D1D1D1"/>
</svg>
