<svg width="21" height="21" viewBox="0 0 21 21" fill="none" xmlns="http://www.w3.org/2000/svg">
<path fill-rule="evenodd" clip-rule="evenodd" d="M9.5 1.21991C4.86445 1.52848 1.2 5.3863 1.2 10.1C1.2 15.0153 5.18467 19 10.1 19C13.151 19 15.8435 17.4647 17.447 15.1246C17.4188 15.1133 17.3911 15.0997 17.3641 15.0838L9.79504 10.6167C9.6122 10.5088 9.5 10.3123 9.5 10.1V1.21991ZM18.0506 14.104C18.6579 12.9004 19 11.5402 19 10.1C19 5.3863 15.3355 1.52848 10.7 1.21991V9.7574L17.974 14.0504C18.0013 14.0665 18.0269 14.0845 18.0506 14.104ZM10.1 0C4.52192 0 0 4.52192 0 10.1C0 15.6781 4.52192 20.2 10.1 20.2C15.6781 20.2 20.2 15.6781 20.2 10.1C20.2 4.52192 15.6781 0 10.1 0Z" fill="#3A79FF"/>
</svg>
