<svg width="21" height="20" viewBox="0 0 21 20" fill="none" xmlns="http://www.w3.org/2000/svg">
<path fill-rule="evenodd" clip-rule="evenodd" d="M0.175736 4.17593C-0.0585787 4.41025 -0.0585787 4.79014 0.175736 5.02446L4.17574 9.02446C4.41005 9.25877 4.78995 9.25877 5.02426 9.02446C5.25858 8.79014 5.25858 8.41025 5.02426 8.17593L2.04853 5.2002L18.6101 5.2002C18.9359 5.2002 19.2 4.93157 19.2 4.6002C19.2 4.26882 18.9359 4.0002 18.6101 4.0002L2.04853 4.0002L5.02426 1.02446C5.25858 0.790143 5.25858 0.410244 5.02426 0.17593C4.78995 -0.0583849 4.41005 -0.0583849 4.17574 0.17593L0.175736 4.17593Z" fill="#3A79FF"/>
<path fill-rule="evenodd" clip-rule="evenodd" d="M20.0245 15.0243C20.2588 14.7899 20.2588 14.4101 20.0245 14.1757L16.0245 10.1757C15.7901 9.94142 15.4102 9.94142 15.1759 10.1757C14.9416 10.4101 14.9416 10.7899 15.1759 11.0243L18.1517 14H1.58095C1.26021 14 1.0002 14.2686 1.0002 14.6C1.0002 14.9314 1.26021 15.2 1.58095 15.2H18.1517L15.1759 18.1757C14.9416 18.4101 14.9416 18.79 15.1759 19.0243C15.4102 19.2586 15.7901 19.2586 16.0245 19.0243L20.0245 15.0243Z" fill="#3A79FF"/>
</svg>
