<svg width="21" height="17" viewBox="0 0 21 17" fill="none" xmlns="http://www.w3.org/2000/svg">
<path fill-rule="evenodd" clip-rule="evenodd" d="M1.14925 2.50456C1.14925 1.7191 1.73567 1.14925 2.37924 1.14925H18.6208C19.2643 1.14925 19.8507 1.7191 19.8507 2.50456V5.22388H1.14925V2.50456ZM0 5.79851V2.50456C0 1.15828 1.02949 0 2.37924 0H18.6208C19.9705 0 21 1.15828 21 2.50456V5.79851V14.0842C21 15.4304 19.9705 16.5887 18.6208 16.5887H2.37924C1.02949 16.5887 0 15.4304 0 14.0842V5.79851ZM19.8507 6.37314V14.0842C19.8507 14.8696 19.2643 15.4395 18.6208 15.4395H2.37924C1.73567 15.4395 1.14925 14.8696 1.14925 14.0842V6.37314H19.8507Z" fill="#3A79FF"/>
</svg>
