<svg width="24" height="25" viewBox="0 0 24 25" fill="none" xmlns="http://www.w3.org/2000/svg">
<path d="M5.25 3.9707C4.78587 3.9707 4.34075 4.15508 4.01256 4.48327C3.68437 4.81146 3.5 5.25657 3.5 5.7207V8.7207C3.5 8.91962 3.42098 9.11038 3.28033 9.25103C3.13968 9.39169 2.94891 9.4707 2.75 9.4707C2.55109 9.4707 2.36032 9.39169 2.21967 9.25103C2.07902 9.11038 2 8.91962 2 8.7207V5.7207C2 4.85875 2.34241 4.0321 2.9519 3.42261C3.5614 2.81311 4.38805 2.4707 5.25 2.4707H8.25C8.44891 2.4707 8.63968 2.54972 8.78033 2.69037C8.92098 2.83103 9 3.02179 9 3.2207C9 3.41962 8.92098 3.61038 8.78033 3.75103C8.63968 3.89169 8.44891 3.9707 8.25 3.9707H5.25ZM5.25 20.9707C4.78587 20.9707 4.34075 20.7863 4.01256 20.4581C3.68437 20.13 3.5 19.6848 3.5 19.2207V16.2207C3.5 16.0218 3.42098 15.831 3.28033 15.6904C3.13968 15.5497 2.94891 15.4707 2.75 15.4707C2.55109 15.4707 2.36032 15.5497 2.21967 15.6904C2.07902 15.831 2 16.0218 2 16.2207V19.2207C2 19.6475 2.08406 20.0701 2.24739 20.4644C2.41072 20.8587 2.65011 21.217 2.9519 21.5188C3.25369 21.8206 3.61197 22.06 4.00628 22.2233C4.40059 22.3866 4.8232 22.4707 5.25 22.4707H8.25C8.44891 22.4707 8.63968 22.3917 8.78033 22.251C8.92098 22.1104 9 21.9196 9 21.7207C9 21.5218 8.92098 21.331 8.78033 21.1904C8.63968 21.0497 8.44891 20.9707 8.25 20.9707H5.25ZM20.5 5.7207C20.5 5.25657 20.3156 4.81146 19.9874 4.48327C19.6592 4.15508 19.2141 3.9707 18.75 3.9707H15.75C15.5511 3.9707 15.3603 3.89169 15.2197 3.75103C15.079 3.61038 15 3.41962 15 3.2207C15 3.02179 15.079 2.83103 15.2197 2.69037C15.3603 2.54972 15.5511 2.4707 15.75 2.4707H18.75C19.1768 2.4707 19.5994 2.55477 19.9937 2.71809C20.388 2.88142 20.7463 3.12082 21.0481 3.42261C21.3499 3.7244 21.5893 4.08267 21.7526 4.47698C21.9159 4.87129 22 5.29391 22 5.7207V8.7207C22 8.91962 21.921 9.11038 21.7803 9.25103C21.6397 9.39169 21.4489 9.4707 21.25 9.4707C21.0511 9.4707 20.8603 9.39169 20.7197 9.25103C20.579 9.11038 20.5 8.91962 20.5 8.7207V5.7207ZM18.75 20.9707C19.2141 20.9707 19.6592 20.7863 19.9874 20.4581C20.3156 20.13 20.5 19.6848 20.5 19.2207V16.2207C20.5 16.0218 20.579 15.831 20.7197 15.6904C20.8603 15.5497 21.0511 15.4707 21.25 15.4707C21.4489 15.4707 21.6397 15.5497 21.7803 15.6904C21.921 15.831 22 16.0218 22 16.2207V19.2207C22 19.6475 21.9159 20.0701 21.7526 20.4644C21.5893 20.8587 21.3499 21.217 21.0481 21.5188C20.7463 21.8206 20.388 22.06 19.9937 22.2233C19.5994 22.3866 19.1768 22.4707 18.75 22.4707H15.75C15.5511 22.4707 15.3603 22.3917 15.2197 22.251C15.079 22.1104 15 21.9196 15 21.7207C15 21.5218 15.079 21.331 15.2197 21.1904C15.3603 21.0497 15.5511 20.9707 15.75 20.9707H18.75ZM7 7.4707H10V10.4707H7V7.4707ZM14 10.4707H10V14.4707H7V17.4707H10V14.4707H14V17.4707H17V14.4707H14V10.4707ZM14 10.4707V7.4707H17V10.4707H14Z" fill="white"/>
</svg>
