<svg width="24" height="24" viewBox="0 0 24 24" fill="none" xmlns="http://www.w3.org/2000/svg">
<path fill-rule="evenodd" clip-rule="evenodd" d="M11.4004 3.11981C6.76484 3.42839 3.10039 7.2862 3.10039 11.9999C3.10039 16.9152 7.08506 20.8999 12.0004 20.8999C15.0514 20.8999 17.7439 19.3646 19.3474 17.0245C19.3192 17.0132 19.2914 16.9997 19.2645 16.9837L11.6954 12.5166C11.5126 12.4087 11.4004 12.2122 11.4004 11.9999V3.11981ZM19.951 16.0039C20.5583 14.8003 20.9004 13.4401 20.9004 11.9999C20.9004 7.2862 17.2359 3.42839 12.6004 3.11981V11.6573L19.8744 15.9503C19.9017 15.9664 19.9273 15.9844 19.951 16.0039ZM12.0004 1.8999C6.42231 1.8999 1.90039 6.42183 1.90039 11.9999C1.90039 17.578 6.42231 22.0999 12.0004 22.0999C17.5785 22.0999 22.1004 17.578 22.1004 11.9999C22.1004 6.42183 17.5785 1.8999 12.0004 1.8999Z" fill="#D1D1D1"/>
</svg>
