<svg width="20" height="21" viewBox="0 0 20 21" fill="none" xmlns="http://www.w3.org/2000/svg">
<path d="M11.265 3.6787C11.1196 3.547 10.9284 3.47751 10.7324 3.48513C10.5363 3.49275 10.3511 3.57686 10.2164 3.71945C10.0816 3.86203 10.0081 4.05173 10.0116 4.24788C10.0151 4.44402 10.0953 4.63099 10.235 4.7687L15.474 9.7237H2.75C2.55109 9.7237 2.36032 9.80272 2.21967 9.94337C2.07902 10.084 2 10.2748 2 10.4737C2 10.6726 2.07902 10.8634 2.21967 11.004C2.36032 11.1447 2.55109 11.2237 2.75 11.2237H15.476L10.235 16.1807C10.0953 16.3184 10.0151 16.5054 10.0116 16.7015C10.0081 16.8977 10.0816 17.0874 10.2164 17.23C10.3511 17.3725 10.5363 17.4567 10.7324 17.4643C10.9284 17.4719 11.1196 17.4024 11.265 17.2707L17.683 11.2007C17.8424 11.05 17.9478 10.8512 17.983 10.6347C18.0067 10.5262 18.006 10.4139 17.981 10.3057C17.9447 10.0924 17.8401 9.89656 17.683 9.7477L11.265 3.6787Z" fill="white"/>
</svg>
