<svg width="24" height="24" viewBox="0 0 24 24" fill="none" xmlns="http://www.w3.org/2000/svg">
<path fill-rule="evenodd" clip-rule="evenodd" d="M5.52366 7.54748C5.52366 8.10629 5.07065 8.55931 4.51183 8.55931C3.95301 8.55931 3.5 8.10629 3.5 7.54748C3.5 6.98866 3.95301 6.53564 4.51183 6.53564C5.07065 6.53564 5.52366 6.98866 5.52366 7.54748ZM7.75091 6.94013C7.41562 6.94013 7.14381 7.21194 7.14381 7.54723C7.14381 7.88252 7.41562 8.15433 7.75091 8.15433H19.8929C20.2282 8.15433 20.5 7.88252 20.5 7.54723C20.5 7.21194 20.2282 6.94013 19.8929 6.94013H7.75091ZM4.51183 13.009C5.07065 13.009 5.52366 12.556 5.52366 11.9972C5.52366 11.4384 5.07065 10.9854 4.51183 10.9854C3.95301 10.9854 3.5 11.4384 3.5 11.9972C3.5 12.556 3.95301 13.009 4.51183 13.009ZM7.75091 11.3899C7.41562 11.3899 7.14381 11.6617 7.14381 11.997C7.14381 12.3323 7.41562 12.6041 7.75091 12.6041H19.8929C20.2282 12.6041 20.5 12.3323 20.5 11.997C20.5 11.6617 20.2282 11.3899 19.8929 11.3899H7.75091ZM7.14381 16.4527C7.14381 16.1174 7.41562 15.8456 7.75091 15.8456H19.8929C20.2282 15.8456 20.5 16.1174 20.5 16.4527C20.5 16.788 20.2282 17.0598 19.8929 17.0598H7.75091C7.41562 17.0598 7.14381 16.788 7.14381 16.4527ZM5.52366 16.4529C5.52366 17.0118 5.07065 17.4648 4.51183 17.4648C3.95301 17.4648 3.5 17.0118 3.5 16.4529C3.5 15.8941 3.95301 15.4411 4.51183 15.4411C5.07065 15.4411 5.52366 15.8941 5.52366 16.4529Z" fill="white"/>
</svg>
