<svg width="25" height="24" viewBox="0 0 25 24" fill="none" xmlns="http://www.w3.org/2000/svg">
<path fill-rule="evenodd" clip-rule="evenodd" d="M5 15C6.10457 15 7 14.1046 7 13C7 11.8954 6.10457 11 5 11C3.89543 11 3 11.8954 3 13C3 14.1046 3.89543 15 5 15ZM12 15C13.1046 15 14 14.1046 14 13C14 11.8954 13.1046 11 12 11C10.8954 11 10 11.8954 10 13C10 14.1046 10.8954 15 12 15ZM21 13C21 14.1046 20.1046 15 19 15C17.8954 15 17 14.1046 17 13C17 11.8954 17.8954 11 19 11C20.1046 11 21 11.8954 21 13Z" fill="#8E8E8E"/>
</svg>
