<svg width="24" height="24" viewBox="0 0 24 24" fill="none" xmlns="http://www.w3.org/2000/svg">
<path fill-rule="evenodd" clip-rule="evenodd" d="M2.07613 6.57559C1.84181 6.8099 1.84181 7.1898 2.07613 7.42412L6.07613 11.4241C6.31044 11.6584 6.69034 11.6584 6.92466 11.4241C7.15897 11.1898 7.15897 10.8099 6.92466 10.5756L3.94892 7.59985L20.5105 7.59985C20.8363 7.59985 21.1004 7.33122 21.1004 6.99985C21.1004 6.66848 20.8363 6.39985 20.5105 6.39985L3.94892 6.39985L6.92466 3.42412C7.15897 3.1898 7.15897 2.8099 6.92466 2.57559C6.69034 2.34127 6.31044 2.34127 6.07613 2.57559L2.07613 6.57559Z" fill="#D1D1D1"/>
<path fill-rule="evenodd" clip-rule="evenodd" d="M21.9239 17.4242C22.1582 17.1899 22.1582 16.81 21.9239 16.5756L17.9239 12.5756C17.6896 12.3413 17.3097 12.3413 17.0753 12.5756C16.841 12.81 16.841 13.1899 17.0753 13.4242L20.0511 16.3999H3.48036C3.15962 16.3999 2.89961 16.6685 2.89961 16.9999C2.89961 17.3313 3.15962 17.5999 3.48036 17.5999H20.0511L17.0753 20.5756C16.841 20.81 16.841 21.1899 17.0753 21.4242C17.3097 21.6585 17.6896 21.6585 17.9239 21.4242L21.9239 17.4242Z" fill="#D1D1D1"/>
</svg>
