<svg width="24" height="24" viewBox="0 0 24 24" fill="none" xmlns="http://www.w3.org/2000/svg">
<path fill-rule="evenodd" clip-rule="evenodd" d="M12.3475 2.11923C12.1431 1.96026 11.8569 1.96026 11.6524 2.11923L3.16188 8.72301C3.024 8.83025 2.94336 8.99514 2.94336 9.16981V19.5472C2.94336 20.1977 3.20178 20.8216 3.66178 21.2816C4.12177 21.7416 4.74566 22 5.39619 22H18.6037C19.2543 22 19.8782 21.7416 20.3381 21.2816C20.7981 20.8216 21.0566 20.1977 21.0566 19.5472V9.16981C21.0566 8.99514 20.9759 8.83025 20.838 8.72301L12.3475 2.11923ZM4.07543 19.5472V9.44665L12 3.28313L19.9245 9.44665V19.5472C19.9245 19.8975 19.7853 20.2334 19.5376 20.4811C19.29 20.7288 18.954 20.8679 18.6037 20.8679H15.3962V12.7261C15.3962 12.4135 15.1428 12.1601 14.8302 12.1601H9.16977C8.85716 12.1601 8.60374 12.4135 8.60374 12.7261V20.8679H5.39619C5.0459 20.8679 4.70996 20.7288 4.46227 20.4811C4.21459 20.2334 4.07543 19.8975 4.07543 19.5472ZM9.73581 20.8679H14.2641V13.2922H9.73581V20.8679Z" fill="#D1D1D1"/>
</svg>
