<svg width="375" height="250" viewBox="0 0 375 250" fill="none" xmlns="http://www.w3.org/2000/svg">
<g clip-path="url(#clip0_123_11824)">
<path fill-rule="evenodd" clip-rule="evenodd" d="M25.5376 134.833L16.2926 125.696C15.9031 125.311 15.9031 124.69 16.2926 124.304L25.5376 115.167C26.1 114.611 27.0149 114.611 27.5782 115.167C28.1405 115.724 28.1405 116.627 27.5782 117.183L19.6696 125L27.5782 132.816C28.1405 133.373 28.1405 134.276 27.5782 134.833C27.0149 135.389 26.1 135.389 25.5376 134.833Z" fill="black"/>
<g clip-path="url(#clip1_123_11824)">
<circle cx="188.387" cy="125.48" r="61.0384" fill="white" stroke="#F0F4F4"/>
<path d="M167.801 141.315V143.644H160.598V141.315H167.801ZM176.557 150.698C175.432 150.698 174.432 150.506 173.557 150.12C172.687 149.735 171.999 149.198 171.494 148.511C170.989 147.823 170.721 147.029 170.689 146.128H173.627C173.653 146.56 173.796 146.938 174.057 147.261C174.317 147.578 174.663 147.826 175.096 148.003C175.528 148.18 176.012 148.269 176.549 148.269C177.122 148.269 177.629 148.17 178.072 147.972C178.515 147.769 178.861 147.487 179.111 147.128C179.361 146.769 179.484 146.354 179.478 145.886C179.484 145.401 179.359 144.974 179.103 144.604C178.848 144.235 178.478 143.946 177.994 143.737C177.515 143.529 176.937 143.425 176.26 143.425H174.846V141.19H176.26C176.817 141.19 177.304 141.094 177.721 140.901C178.142 140.709 178.473 140.438 178.713 140.089C178.952 139.735 179.07 139.326 179.064 138.862C179.07 138.409 178.968 138.016 178.76 137.683C178.557 137.344 178.267 137.081 177.892 136.894C177.523 136.706 177.088 136.612 176.588 136.612C176.098 136.612 175.645 136.701 175.228 136.878C174.812 137.055 174.476 137.308 174.221 137.636C173.965 137.959 173.83 138.344 173.814 138.792H171.025C171.046 137.896 171.304 137.11 171.799 136.433C172.299 135.75 172.965 135.219 173.799 134.839C174.632 134.453 175.567 134.261 176.603 134.261C177.671 134.261 178.598 134.461 179.385 134.862C180.176 135.258 180.788 135.792 181.221 136.464C181.653 137.136 181.869 137.878 181.869 138.69C181.874 139.591 181.609 140.347 181.072 140.956C180.541 141.565 179.843 141.964 178.978 142.151V142.276C180.103 142.433 180.965 142.849 181.564 143.526C182.169 144.198 182.468 145.034 182.463 146.034C182.463 146.93 182.208 147.732 181.697 148.44C181.192 149.144 180.494 149.696 179.603 150.097C178.718 150.498 177.702 150.698 176.557 150.698ZM191.052 150.698C189.89 150.698 188.859 150.503 187.958 150.112C187.062 149.722 186.359 149.188 185.849 148.511C185.344 147.828 185.094 147.055 185.099 146.19C185.094 145.519 185.239 144.901 185.536 144.339C185.833 143.776 186.234 143.308 186.739 142.933C187.25 142.552 187.818 142.31 188.443 142.206V142.097C187.62 141.914 186.953 141.495 186.443 140.839C185.937 140.177 185.687 139.414 185.693 138.55C185.687 137.727 185.917 136.993 186.38 136.347C186.844 135.701 187.479 135.193 188.286 134.823C189.094 134.448 190.015 134.261 191.052 134.261C192.078 134.261 192.992 134.448 193.794 134.823C194.601 135.193 195.237 135.701 195.7 136.347C196.169 136.993 196.403 137.727 196.403 138.55C196.403 139.414 196.146 140.177 195.63 140.839C195.12 141.495 194.461 141.914 193.653 142.097V142.206C194.278 142.31 194.841 142.552 195.341 142.933C195.846 143.308 196.247 143.776 196.544 144.339C196.846 144.901 196.997 145.519 196.997 146.19C196.997 147.055 196.742 147.828 196.232 148.511C195.721 149.188 195.018 149.722 194.122 150.112C193.232 150.503 192.208 150.698 191.052 150.698ZM191.052 148.464C191.651 148.464 192.172 148.362 192.614 148.159C193.057 147.951 193.401 147.659 193.646 147.284C193.89 146.909 194.015 146.477 194.021 145.987C194.015 145.477 193.883 145.026 193.622 144.636C193.367 144.24 193.015 143.93 192.568 143.706C192.125 143.482 191.62 143.37 191.052 143.37C190.479 143.37 189.969 143.482 189.521 143.706C189.073 143.93 188.719 144.24 188.458 144.636C188.203 145.026 188.078 145.477 188.083 145.987C188.078 146.477 188.198 146.909 188.443 147.284C188.687 147.654 189.031 147.943 189.474 148.151C189.922 148.36 190.448 148.464 191.052 148.464ZM191.052 141.175C191.542 141.175 191.974 141.076 192.349 140.878C192.729 140.68 193.028 140.404 193.247 140.05C193.466 139.696 193.578 139.287 193.583 138.823C193.578 138.365 193.469 137.964 193.255 137.62C193.042 137.271 192.745 137.003 192.364 136.815C191.984 136.623 191.547 136.526 191.052 136.526C190.547 136.526 190.101 136.623 189.716 136.815C189.336 137.003 189.039 137.271 188.825 137.62C188.617 137.964 188.515 138.365 188.521 138.823C188.515 139.287 188.62 139.696 188.833 140.05C189.052 140.399 189.351 140.675 189.732 140.878C190.117 141.076 190.557 141.175 191.052 141.175ZM208.34 147.479V146.636C208.34 146.016 208.47 145.446 208.731 144.925C208.997 144.404 209.382 143.985 209.887 143.667C210.392 143.349 211.004 143.19 211.723 143.19C212.463 143.19 213.082 143.349 213.582 143.667C214.082 143.979 214.46 144.396 214.715 144.917C214.976 145.438 215.106 146.011 215.106 146.636V147.479C215.106 148.099 214.976 148.67 214.715 149.19C214.455 149.711 214.072 150.131 213.567 150.448C213.067 150.766 212.452 150.925 211.723 150.925C210.994 150.925 210.377 150.766 209.872 150.448C209.366 150.131 208.984 149.711 208.723 149.19C208.468 148.67 208.34 148.099 208.34 147.479ZM210.379 146.636V147.479C210.379 147.891 210.478 148.269 210.676 148.612C210.874 148.956 211.223 149.128 211.723 149.128C212.228 149.128 212.575 148.959 212.762 148.62C212.955 148.276 213.051 147.896 213.051 147.479V146.636C213.051 146.219 212.96 145.839 212.778 145.495C212.595 145.146 212.244 144.972 211.723 144.972C211.234 144.972 210.887 145.146 210.684 145.495C210.481 145.839 210.379 146.219 210.379 146.636ZM200.207 138.323V137.479C200.207 136.854 200.34 136.282 200.606 135.761C200.872 135.24 201.257 134.823 201.762 134.511C202.267 134.193 202.879 134.034 203.598 134.034C204.332 134.034 204.95 134.193 205.45 134.511C205.955 134.823 206.335 135.24 206.59 135.761C206.845 136.282 206.973 136.854 206.973 137.479V138.323C206.973 138.948 206.843 139.521 206.582 140.042C206.327 140.558 205.947 140.972 205.442 141.284C204.937 141.597 204.322 141.753 203.598 141.753C202.864 141.753 202.244 141.597 201.739 141.284C201.239 140.972 200.859 140.555 200.598 140.034C200.338 139.513 200.207 138.943 200.207 138.323ZM202.262 137.479V138.323C202.262 138.74 202.359 139.12 202.551 139.464C202.749 139.802 203.098 139.972 203.598 139.972C204.098 139.972 204.442 139.802 204.629 139.464C204.822 139.12 204.918 138.74 204.918 138.323V137.479C204.918 137.063 204.827 136.683 204.645 136.339C204.463 135.99 204.114 135.815 203.598 135.815C203.103 135.815 202.757 135.99 202.559 136.339C202.361 136.688 202.262 137.068 202.262 137.479ZM201.098 150.479L212.098 134.479H214.051L203.051 150.479H201.098Z" fill="#002424"/>
<path d="M166.058 96.8584V88.1311H167.375V91.9237H171.726V88.1311H173.047V96.8584H171.726V93.053H167.375V96.8584H166.058ZM177.739 96.9905C177.126 96.9905 176.59 96.8499 176.133 96.5686C175.676 96.2874 175.32 95.8939 175.068 95.3882C174.815 94.8825 174.688 94.2916 174.688 93.6155C174.688 92.9365 174.815 92.3428 175.068 91.8343C175.32 91.3257 175.676 90.9308 176.133 90.6496C176.59 90.3683 177.126 90.2277 177.739 90.2277C178.353 90.2277 178.889 90.3683 179.346 90.6496C179.803 90.9308 180.159 91.3257 180.411 91.8343C180.664 92.3428 180.791 92.9365 180.791 93.6155C180.791 94.2916 180.664 94.8825 180.411 95.3882C180.159 95.8939 179.803 96.2874 179.346 96.5686C178.889 96.8499 178.353 96.9905 177.739 96.9905ZM177.744 95.9209C178.141 95.9209 178.471 95.8158 178.732 95.6056C178.994 95.3953 179.187 95.1155 179.312 94.7661C179.44 94.4166 179.504 94.0317 179.504 93.6112C179.504 93.1936 179.44 92.8101 179.312 92.4607C179.187 92.1084 178.994 91.8257 178.732 91.6127C178.471 91.3996 178.141 91.2931 177.744 91.2931C177.343 91.2931 177.011 91.3996 176.747 91.6127C176.485 91.8257 176.291 92.1084 176.163 92.4607C176.038 92.8101 175.975 93.1936 175.975 93.6112C175.975 94.0317 176.038 94.4166 176.163 94.7661C176.291 95.1155 176.485 95.3953 176.747 95.6056C177.011 95.8158 177.343 95.9209 177.744 95.9209ZM186.236 96.8584V91.3996H184.668C184.296 91.3996 184.006 91.4862 183.799 91.6595C183.591 91.8328 183.488 92.0601 183.488 92.3414C183.488 92.6198 183.583 92.8442 183.773 93.0146C183.966 93.1823 184.236 93.2661 184.583 93.2661H186.607V94.2973H184.583C184.1 94.2973 183.682 94.2178 183.33 94.0587C182.981 93.8968 182.711 93.6681 182.52 93.3726C182.333 93.0771 182.239 92.7277 182.239 92.3243C182.239 91.9124 182.336 91.5573 182.529 91.259C182.725 90.9578 183.005 90.7249 183.368 90.5601C183.735 90.3953 184.168 90.3129 184.668 90.3129H187.434V96.8584H186.236ZM181.941 96.8584L183.786 93.5516H185.09L183.245 96.8584H181.941ZM194.299 87.8754L194.828 88.6808C194.632 88.8598 194.409 88.9877 194.159 89.0644C193.912 89.1382 193.626 89.1851 193.302 89.205C192.978 89.222 192.608 89.2377 192.19 89.2519C191.718 89.2661 191.331 89.3683 191.027 89.5587C190.723 89.7462 190.488 90.0246 190.324 90.3939C190.162 90.7604 190.057 91.2206 190.008 91.7746H190.089C190.302 91.3683 190.598 91.0644 190.976 90.8627C191.356 90.661 191.784 90.5601 192.258 90.5601C192.787 90.5601 193.257 90.6808 193.669 90.9223C194.081 91.1638 194.405 91.5175 194.64 91.9834C194.879 92.4465 194.998 93.0132 194.998 93.6837C194.998 94.3627 194.873 94.9493 194.623 95.4436C194.376 95.9379 194.027 96.32 193.575 96.5899C193.126 96.857 192.596 96.9905 191.986 96.9905C191.375 96.9905 190.842 96.8527 190.388 96.5771C189.936 96.2987 189.585 95.8868 189.335 95.3414C189.088 94.7959 188.964 94.1226 188.964 93.3215V92.6737C188.964 91.1766 189.231 90.0502 189.765 89.2945C190.299 88.5388 191.098 88.151 192.16 88.1311C192.504 88.1226 192.811 88.1212 193.081 88.1269C193.351 88.1297 193.586 88.1169 193.788 88.0885C193.993 88.0573 194.163 87.9862 194.299 87.8754ZM191.99 95.9209C192.345 95.9209 192.65 95.8314 192.906 95.6524C193.165 95.4706 193.363 95.2135 193.503 94.8811C193.642 94.5487 193.711 94.1567 193.711 93.705C193.711 93.2618 193.642 92.8854 193.503 92.5757C193.363 92.2661 193.165 92.0303 192.906 91.8683C192.647 91.7036 192.338 91.6212 191.977 91.6212C191.71 91.6212 191.471 91.6681 191.261 91.7618C191.051 91.8527 190.87 91.9877 190.72 92.1666C190.572 92.3456 190.457 92.5644 190.375 92.8229C190.295 93.0786 190.253 93.3726 190.247 93.705C190.247 94.3811 190.402 94.9195 190.711 95.32C191.024 95.7206 191.45 95.9209 191.99 95.9209ZM196.542 99.3129V90.3129H197.786V91.374H197.892C197.966 91.2377 198.073 91.08 198.212 90.901C198.351 90.722 198.544 90.5658 198.792 90.4323C199.039 90.2959 199.365 90.2277 199.772 90.2277C200.3 90.2277 200.772 90.3612 201.186 90.6283C201.601 90.8953 201.927 91.2803 202.162 91.7831C202.401 92.286 202.52 92.8911 202.52 93.5985C202.52 94.3058 202.402 94.9124 202.167 95.4181C201.931 95.9209 201.607 96.3087 201.195 96.5814C200.783 96.8513 200.313 96.9862 199.785 96.9862C199.387 96.9862 199.061 96.9195 198.809 96.786C198.559 96.6524 198.363 96.4962 198.221 96.3172C198.079 96.1382 197.969 95.9791 197.892 95.8399H197.816V99.3129H196.542ZM197.79 93.5857C197.79 94.0459 197.857 94.4493 197.99 94.7959C198.124 95.1425 198.317 95.4138 198.57 95.6098C198.823 95.803 199.133 95.8996 199.499 95.8996C199.88 95.8996 200.198 95.7987 200.454 95.597C200.709 95.3925 200.902 95.1155 201.033 94.7661C201.167 94.4166 201.233 94.0232 201.233 93.5857C201.233 93.1539 201.168 92.7661 201.037 92.4223C200.91 92.0786 200.716 91.8073 200.458 91.6084C200.202 91.4095 199.883 91.3101 199.499 91.3101C199.13 91.3101 198.817 91.4053 198.561 91.5956C198.309 91.786 198.117 92.0516 197.986 92.3925C197.856 92.7334 197.79 93.1311 197.79 93.5857ZM205.027 92.5629H206.927C207.728 92.5629 208.345 92.7618 208.777 93.1595C209.208 93.5573 209.424 94.07 209.424 94.6979C209.424 95.107 209.328 95.4749 209.135 95.8016C208.941 96.1283 208.659 96.3868 208.287 96.5771C207.914 96.7646 207.461 96.8584 206.927 96.8584H204.068V90.3129H205.316V95.759H206.927C207.294 95.759 207.595 95.6638 207.831 95.4735C208.066 95.2803 208.184 95.0345 208.184 94.7362C208.184 94.4209 208.066 94.1638 207.831 93.9649C207.595 93.7632 207.294 93.6624 206.927 93.6624H205.027V92.5629ZM173.143 112.858V111.904L176.096 108.844C176.412 108.512 176.671 108.221 176.876 107.971C177.083 107.718 177.238 107.478 177.341 107.25C177.443 107.023 177.494 106.782 177.494 106.526C177.494 106.236 177.426 105.986 177.289 105.776C177.153 105.563 176.967 105.4 176.731 105.286C176.495 105.169 176.23 105.111 175.934 105.111C175.622 105.111 175.349 105.175 175.116 105.303C174.883 105.431 174.704 105.611 174.579 105.844C174.454 106.077 174.392 106.35 174.392 106.662H173.135C173.135 106.131 173.257 105.667 173.501 105.269C173.745 104.871 174.081 104.563 174.507 104.344C174.933 104.123 175.417 104.012 175.96 104.012C176.508 104.012 176.991 104.121 177.409 104.34C177.829 104.556 178.157 104.851 178.393 105.226C178.629 105.598 178.747 106.019 178.747 106.488C178.747 106.812 178.686 107.128 178.564 107.438C178.444 107.748 178.235 108.093 177.937 108.473C177.639 108.851 177.224 109.31 176.693 109.85L174.958 111.665V111.729H178.887V112.858H173.143ZM183.661 113.003C182.988 113 182.412 112.823 181.935 112.471C181.458 112.118 181.093 111.606 180.84 110.932C180.587 110.259 180.461 109.448 180.461 108.499C180.461 107.553 180.587 106.745 180.84 106.074C181.095 105.404 181.462 104.892 181.939 104.54C182.419 104.188 182.993 104.012 183.661 104.012C184.328 104.012 184.901 104.189 185.378 104.544C185.855 104.897 186.22 105.408 186.473 106.079C186.729 106.746 186.857 107.553 186.857 108.499C186.857 109.451 186.73 110.263 186.478 110.937C186.225 111.607 185.86 112.12 185.382 112.475C184.905 112.827 184.331 113.003 183.661 113.003ZM183.661 111.866C184.252 111.866 184.713 111.577 185.046 111C185.381 110.424 185.549 109.59 185.549 108.499C185.549 107.775 185.472 107.162 185.318 106.662C185.168 106.16 184.951 105.779 184.666 105.52C184.385 105.259 184.05 105.128 183.661 105.128C183.073 105.128 182.611 105.418 182.276 105.998C181.941 106.577 181.772 107.411 181.769 108.499C181.769 109.226 181.844 109.841 181.995 110.344C182.148 110.844 182.365 111.223 182.647 111.482C182.928 111.738 183.266 111.866 183.661 111.866ZM188.489 112.858V111.904L191.442 108.844C191.757 108.512 192.017 108.221 192.221 107.971C192.429 107.718 192.584 107.478 192.686 107.25C192.788 107.023 192.839 106.782 192.839 106.526C192.839 106.236 192.771 105.986 192.635 105.776C192.498 105.563 192.312 105.4 192.077 105.286C191.841 105.169 191.575 105.111 191.28 105.111C190.967 105.111 190.695 105.175 190.462 105.303C190.229 105.431 190.05 105.611 189.925 105.844C189.8 106.077 189.737 106.35 189.737 106.662H188.48C188.48 106.131 188.602 105.667 188.846 105.269C189.091 104.871 189.426 104.563 189.852 104.344C190.278 104.123 190.763 104.012 191.305 104.012C191.854 104.012 192.337 104.121 192.754 104.34C193.175 104.556 193.503 104.851 193.739 105.226C193.974 105.598 194.092 106.019 194.092 106.488C194.092 106.812 194.031 107.128 193.909 107.438C193.79 107.748 193.581 108.093 193.283 108.473C192.984 108.851 192.57 109.31 192.038 109.85L190.304 111.665V111.729H194.233V112.858H188.489ZM195.597 111.154V110.089L199.368 104.131H200.208V105.699H199.675L196.978 109.969V110.037H202.147V111.154H195.597ZM199.735 112.858V110.83L199.743 110.344V104.131H200.992V112.858H199.735Z" fill="#516160"/>
<path d="M224.622 202.259C226.869 207 224.859 212.715 219.917 214.478C200.329 221.466 178.891 221.86 158.924 215.441C135.93 208.049 116.615 192.175 104.907 171.049C93.1989 149.923 89.9777 125.13 95.8982 101.713C101.819 78.2967 116.436 58.0144 136.778 44.9915C157.12 31.9686 181.659 27.1829 205.404 31.6078C229.149 36.0327 250.316 49.3359 264.602 68.8118C278.888 88.2877 285.219 112.474 282.307 136.451C279.779 157.271 270.447 176.576 255.902 191.441C252.232 195.191 246.201 194.624 242.836 190.599C239.471 186.573 240.058 180.619 243.633 176.778C254.519 165.082 261.5 150.182 263.446 134.161C265.775 114.979 260.71 95.6301 249.282 80.0494C237.853 64.4687 220.919 53.8261 201.923 50.2862C182.927 46.7463 163.296 50.5748 147.023 60.9932C130.749 71.4115 119.055 87.6373 114.319 106.371C109.582 125.104 112.159 144.938 121.525 161.839C130.892 178.74 146.344 191.439 164.739 197.353C180.104 202.292 196.558 202.189 211.737 197.198C216.721 195.559 222.375 197.518 224.622 202.259Z" fill="#3A79FF"/>
<path d="M143.24 208.792C163.771 219.76 187.614 222.81 210.244 217.361C232.875 211.912 252.717 198.344 266.005 179.232L250.405 168.386C239.775 183.675 223.901 194.529 205.797 198.889C187.692 203.248 168.618 200.808 152.193 192.033L143.24 208.792Z" fill="#CD3E83"/>
<path d="M93 125C93 146.33 100.178 167.039 113.379 183.794C126.58 200.548 145.035 212.372 165.773 217.363L170.218 198.89C153.628 194.898 138.864 185.438 128.303 172.035C117.743 158.631 112 142.064 112 125H93Z" fill="#8E8E8E"/>
<path d="M152.58 36.8501C130.674 45.6521 112.831 62.2951 102.527 83.5356C92.2225 104.776 90.1962 129.092 96.8425 151.745L115.074 146.396C109.757 128.274 111.378 108.821 119.621 91.8285C127.864 74.8361 142.139 61.5217 159.664 54.48L152.58 36.8501Z" fill="#78BAA7"/>
</g>
<g clip-path="url(#clip2_123_11824)">
<path fill-rule="evenodd" clip-rule="evenodd" d="M350.462 115.167L359.707 124.304C360.097 124.689 360.097 125.31 359.707 125.696L350.462 134.833C349.9 135.389 348.985 135.389 348.422 134.833C347.859 134.276 347.859 133.373 348.422 132.817L356.33 124.999L348.422 117.184C347.859 116.627 347.859 115.724 348.422 115.167C348.985 114.611 349.9 114.611 350.462 115.167Z" fill="black"/>
</g>
</g>
<defs>
<clipPath id="clip0_123_11824">
<rect width="376" height="250" fill="white"/>
</clipPath>
<clipPath id="clip1_123_11824">
<rect width="190" height="190" fill="white" transform="translate(93 30)"/>
</clipPath>
<clipPath id="clip2_123_11824">
<rect width="44" height="190" fill="white" transform="translate(332 30)"/>
</clipPath>
</defs>
</svg>
