<svg width="375" height="230" viewBox="0 0 375 230" fill="none" xmlns="http://www.w3.org/2000/svg">
<g clip-path="url(#clip0_98_6498)">
<path d="M31.9887 184H30.7884L34.26 174.545H35.4419L38.9134 184H37.7132L34.8879 176.041H34.814L31.9887 184ZM32.4319 180.307H37.27V181.322H32.4319V180.307ZM40.2384 184V176.909H43.1375C43.9008 176.909 44.5071 177.081 44.9564 177.426C45.4057 177.771 45.6304 178.226 45.6304 178.793C45.6304 179.223 45.5027 179.557 45.2472 179.794C44.9918 180.028 44.664 180.187 44.2639 180.27C44.5255 180.307 44.7794 180.399 45.0257 180.547C45.2749 180.695 45.4811 180.898 45.6443 181.156C45.8074 181.412 45.8889 181.726 45.8889 182.098C45.8889 182.461 45.7966 182.786 45.6119 183.072C45.4273 183.358 45.1626 183.585 44.8179 183.751C44.4732 183.917 44.0608 184 43.5807 184H40.2384ZM41.2725 183.003H43.5807C43.9562 183.003 44.2501 182.914 44.4624 182.735C44.6748 182.557 44.781 182.313 44.781 182.006C44.781 181.639 44.6748 181.352 44.4624 181.142C44.2501 180.93 43.9562 180.824 43.5807 180.824H41.2725V183.003ZM41.2725 179.882H43.1375C43.4299 179.882 43.6807 179.842 43.89 179.762C44.0993 179.679 44.2593 179.562 44.3701 179.411C44.484 179.257 44.5409 179.076 44.5409 178.866C44.5409 178.568 44.4163 178.334 44.167 178.165C43.9177 177.992 43.5745 177.906 43.1375 177.906H41.2725V179.882ZM51.9146 176.909V177.925H48.6277V184H47.5382V176.909H51.9146ZM54.2067 186.659C54.022 186.659 53.8574 186.644 53.7127 186.613C53.5681 186.585 53.468 186.558 53.4126 186.53L53.6896 185.57C53.9543 185.637 54.1882 185.662 54.3913 185.643C54.5945 185.625 54.7745 185.534 54.9315 185.371C55.0915 185.211 55.2377 184.951 55.37 184.591L55.5732 184.037L52.951 176.909H54.1328L56.0902 182.56H56.1641L58.1214 176.909H59.3033L56.2933 185.034C56.1579 185.4 55.9902 185.703 55.7901 185.944C55.5901 186.187 55.3577 186.367 55.093 186.484C54.8314 186.601 54.536 186.659 54.2067 186.659ZM63.3681 184.148C62.7033 184.148 62.1309 183.991 61.6507 183.677C61.1706 183.363 60.8013 182.931 60.5428 182.38C60.2843 181.829 60.155 181.199 60.155 180.491C60.155 179.771 60.2873 179.136 60.552 178.585C60.8198 178.031 61.1922 177.598 61.6692 177.288C62.1493 176.974 62.7095 176.817 63.3496 176.817C63.8482 176.817 64.2975 176.909 64.6976 177.094C65.0977 177.278 65.4255 177.537 65.6809 177.869C65.9364 178.202 66.0949 178.589 66.1564 179.033H65.0669C64.9838 178.71 64.7992 178.423 64.513 178.174C64.2298 177.922 63.8482 177.795 63.3681 177.795C62.9434 177.795 62.571 177.906 62.2509 178.128C61.9339 178.346 61.6861 178.656 61.5076 179.056C61.3322 179.453 61.2445 179.919 61.2445 180.455C61.2445 181.002 61.3307 181.479 61.503 181.886C61.6784 182.292 61.9247 182.607 62.2417 182.832C62.5617 183.057 62.9372 183.169 63.3681 183.169C63.6512 183.169 63.9082 183.12 64.139 183.021C64.3699 182.923 64.5653 182.781 64.7253 182.597C64.8854 182.412 64.9992 182.19 65.0669 181.932H66.1564C66.0949 182.35 65.9425 182.727 65.6994 183.063C65.4593 183.395 65.1408 183.66 64.7438 183.857C64.3498 184.051 63.8913 184.148 63.3681 184.148ZM67.1905 177.925V176.909H72.9519V177.925H70.6252V184H69.5357V177.925H67.1905Z" fill="#8E8E8E"/>
<path d="M37.9519 199V198.233L40.8326 195.08C41.1707 194.71 41.4491 194.389 41.6678 194.116C41.8866 193.841 42.0485 193.582 42.1536 193.341C42.2616 193.097 42.3156 192.841 42.3156 192.574C42.3156 192.267 42.2417 192.001 42.094 191.777C41.9491 191.553 41.7502 191.379 41.4974 191.257C41.2445 191.135 40.9604 191.074 40.6451 191.074C40.3099 191.074 40.0173 191.143 39.7673 191.283C39.5201 191.419 39.3283 191.611 39.192 191.858C39.0585 192.105 38.9917 192.395 38.9917 192.727H37.986C37.986 192.216 38.1039 191.767 38.3397 191.381C38.5755 190.994 38.8965 190.693 39.3028 190.477C39.7119 190.261 40.1707 190.153 40.6792 190.153C41.1906 190.153 41.6437 190.261 42.0386 190.477C42.4335 190.693 42.7431 190.984 42.9675 191.351C43.192 191.717 43.3042 192.125 43.3042 192.574C43.3042 192.895 43.246 193.209 43.1295 193.516C43.0158 193.82 42.817 194.159 42.5329 194.534C42.2516 194.906 41.861 195.361 41.361 195.898L39.4008 197.994V198.062H43.4576V199H37.9519ZM48.1841 199.119C47.5421 199.119 46.9952 198.945 46.5435 198.595C46.0918 198.243 45.7466 197.733 45.508 197.065C45.2694 196.395 45.15 195.585 45.15 194.636C45.15 193.693 45.2694 192.888 45.508 192.22C45.7495 191.55 46.0961 191.038 46.5478 190.686C47.0023 190.331 47.5478 190.153 48.1841 190.153C48.8205 190.153 49.3645 190.331 49.8162 190.686C50.2708 191.038 50.6174 191.55 50.856 192.22C51.0975 192.888 51.2182 193.693 51.2182 194.636C51.2182 195.585 51.0989 196.395 50.8603 197.065C50.6216 197.733 50.2765 198.243 49.8248 198.595C49.3731 198.945 48.8262 199.119 48.1841 199.119ZM48.1841 198.182C48.8205 198.182 49.3148 197.875 49.6671 197.261C50.0194 196.648 50.1955 195.773 50.1955 194.636C50.1955 193.881 50.1145 193.237 49.9526 192.706C49.7935 192.175 49.5634 191.77 49.2623 191.491C48.964 191.213 48.6046 191.074 48.1841 191.074C47.5535 191.074 47.0606 191.385 46.7054 192.007C46.3503 192.626 46.1728 193.503 46.1728 194.636C46.1728 195.392 46.2523 196.034 46.4114 196.562C46.5705 197.091 46.7992 197.493 47.0975 197.768C47.3986 198.044 47.7608 198.182 48.1841 198.182ZM52.9575 199V198.233L55.8382 195.08C56.1763 194.71 56.4547 194.389 56.6735 194.116C56.8922 193.841 57.0541 193.582 57.1593 193.341C57.2672 193.097 57.3212 192.841 57.3212 192.574C57.3212 192.267 57.2473 192.001 57.0996 191.777C56.9547 191.553 56.7558 191.379 56.503 191.257C56.2502 191.135 55.9661 191.074 55.6507 191.074C55.3155 191.074 55.0229 191.143 54.7729 191.283C54.5257 191.419 54.334 191.611 54.1976 191.858C54.0641 192.105 53.9973 192.395 53.9973 192.727H52.9916C52.9916 192.216 53.1095 191.767 53.3453 191.381C53.5811 190.994 53.9022 190.693 54.3084 190.477C54.7175 190.261 55.1763 190.153 55.6848 190.153C56.1962 190.153 56.6493 190.261 57.0442 190.477C57.4391 190.693 57.7487 190.984 57.9732 191.351C58.1976 191.717 58.3098 192.125 58.3098 192.574C58.3098 192.895 58.2516 193.209 58.1351 193.516C58.0215 193.82 57.8226 194.159 57.5385 194.534C57.2573 194.906 56.8666 195.361 56.3666 195.898L54.4064 197.994V198.062H58.4632V199H52.9575ZM59.9511 197.21V196.341L63.7864 190.273H64.417V191.619H63.9909L61.0932 196.205V196.273H66.2579V197.21H59.9511ZM64.0591 199V196.946V196.541V190.273H65.0648V199H64.0591Z" fill="#D1D1D1"/>
<path d="M121.721 177.5H120.576C120.508 177.171 120.39 176.881 120.22 176.632C120.054 176.383 119.851 176.174 119.611 176.004C119.374 175.832 119.111 175.703 118.821 175.616C118.532 175.53 118.231 175.487 117.917 175.487C117.344 175.487 116.826 175.632 116.361 175.921C115.899 176.21 115.531 176.637 115.258 177.2C114.987 177.763 114.851 178.454 114.851 179.273C114.851 180.091 114.987 180.782 115.258 181.346C115.531 181.909 115.899 182.335 116.361 182.624C116.826 182.914 117.344 183.058 117.917 183.058C118.231 183.058 118.532 183.015 118.821 182.929C119.111 182.843 119.374 182.715 119.611 182.546C119.851 182.373 120.054 182.163 120.22 181.913C120.39 181.661 120.508 181.372 120.576 181.045H121.721C121.634 181.529 121.477 181.961 121.25 182.343C121.022 182.724 120.739 183.049 120.4 183.317C120.062 183.581 119.682 183.783 119.26 183.922C118.841 184.06 118.394 184.129 117.917 184.129C117.11 184.129 116.393 183.932 115.765 183.538C115.138 183.144 114.644 182.584 114.283 181.858C113.923 181.132 113.743 180.27 113.743 179.273C113.743 178.276 113.923 177.414 114.283 176.688C114.644 175.961 115.138 175.401 115.765 175.007C116.393 174.613 117.11 174.416 117.917 174.416C118.394 174.416 118.841 174.485 119.26 174.624C119.682 174.762 120.062 174.966 120.4 175.233C120.739 175.498 121.022 175.821 121.25 176.203C121.477 176.581 121.634 177.014 121.721 177.5ZM126.396 184.148C125.713 184.148 125.123 183.997 124.628 183.695C124.135 183.391 123.755 182.966 123.488 182.421C123.223 181.873 123.091 181.236 123.091 180.51C123.091 179.784 123.223 179.143 123.488 178.589C123.755 178.032 124.128 177.598 124.605 177.288C125.085 176.974 125.645 176.817 126.285 176.817C126.654 176.817 127.019 176.878 127.379 177.001C127.739 177.125 128.067 177.325 128.363 177.602C128.658 177.875 128.893 178.239 129.069 178.691C129.244 179.143 129.332 179.701 129.332 180.362V180.824H123.866V179.882H128.224C128.224 179.482 128.144 179.125 127.984 178.811C127.827 178.497 127.602 178.249 127.31 178.068C127.021 177.886 126.679 177.795 126.285 177.795C125.851 177.795 125.476 177.903 125.159 178.119C124.845 178.331 124.603 178.608 124.434 178.95C124.265 179.291 124.18 179.657 124.18 180.048V180.676C124.18 181.212 124.272 181.666 124.457 182.038C124.645 182.407 124.905 182.689 125.237 182.883C125.57 183.074 125.956 183.169 126.396 183.169C126.682 183.169 126.941 183.129 127.172 183.049C127.405 182.966 127.607 182.843 127.776 182.68C127.946 182.513 128.076 182.307 128.169 182.061L129.221 182.357C129.11 182.714 128.924 183.027 128.663 183.298C128.401 183.566 128.078 183.775 127.693 183.926C127.308 184.074 126.876 184.148 126.396 184.148ZM135.735 179.956V180.972H131.82V179.956H135.735ZM132.079 176.909V184H130.989V176.909H132.079ZM136.566 176.909V184H135.477V176.909H136.566ZM137.591 177.925V176.909H143.352V177.925H141.026V184H139.936V177.925H137.591ZM149.207 184V177.906H147.324C146.899 177.906 146.565 178.005 146.322 178.202C146.079 178.399 145.957 178.67 145.957 179.014C145.957 179.353 146.066 179.619 146.285 179.813C146.506 180.007 146.81 180.104 147.194 180.104H149.484V181.119H147.194C146.714 181.119 146.3 181.035 145.953 180.865C145.605 180.696 145.337 180.455 145.149 180.141C144.961 179.824 144.868 179.448 144.868 179.014C144.868 178.577 144.966 178.202 145.163 177.888C145.36 177.574 145.642 177.332 146.008 177.163C146.377 176.994 146.816 176.909 147.324 176.909H150.241V184H149.207ZM144.48 184L146.493 180.473H147.674L145.662 184H144.48ZM157.504 174.25L158.058 174.915C157.843 175.124 157.593 175.27 157.31 175.353C157.027 175.436 156.707 175.487 156.35 175.506C155.993 175.524 155.596 175.543 155.159 175.561C154.666 175.58 154.259 175.7 153.936 175.921C153.612 176.143 153.363 176.463 153.188 176.881C153.012 177.3 152.9 177.814 152.851 178.423H152.943C153.183 177.98 153.515 177.654 153.94 177.445C154.365 177.235 154.82 177.131 155.307 177.131C155.861 177.131 156.359 177.26 156.802 177.518C157.246 177.777 157.596 178.16 157.855 178.668C158.113 179.176 158.243 179.802 158.243 180.547C158.243 181.289 158.11 181.929 157.846 182.467C157.584 183.006 157.216 183.421 156.742 183.714C156.271 184.003 155.719 184.148 155.085 184.148C154.451 184.148 153.896 183.998 153.419 183.7C152.941 183.398 152.571 182.952 152.306 182.361C152.041 181.767 151.909 181.033 151.909 180.159V179.402C151.909 177.823 152.177 176.626 152.712 175.81C153.251 174.995 154.06 174.573 155.14 174.545C155.522 174.533 155.862 174.53 156.161 174.536C156.459 174.542 156.719 174.529 156.941 174.495C157.162 174.461 157.35 174.379 157.504 174.25ZM155.085 183.169C155.513 183.169 155.881 183.061 156.188 182.846C156.499 182.63 156.738 182.327 156.904 181.936C157.07 181.542 157.153 181.079 157.153 180.547C157.153 180.03 157.069 179.59 156.899 179.227C156.733 178.863 156.495 178.586 156.184 178.396C155.873 178.205 155.501 178.109 155.067 178.109C154.75 178.109 154.465 178.163 154.213 178.271C153.96 178.379 153.745 178.537 153.566 178.746C153.388 178.956 153.249 179.211 153.151 179.513C153.055 179.814 153.005 180.159 152.998 180.547C152.998 181.341 153.185 181.976 153.557 182.453C153.929 182.931 154.439 183.169 155.085 183.169ZM159.909 186.659V176.909H160.962V178.036H161.091C161.171 177.912 161.282 177.755 161.423 177.565C161.568 177.371 161.774 177.198 162.042 177.048C162.313 176.894 162.679 176.817 163.141 176.817C163.738 176.817 164.264 176.966 164.72 177.265C165.175 177.563 165.531 177.986 165.786 178.534C166.041 179.082 166.169 179.728 166.169 180.473C166.169 181.224 166.041 181.875 165.786 182.426C165.531 182.974 165.177 183.398 164.724 183.7C164.272 183.998 163.75 184.148 163.159 184.148C162.704 184.148 162.339 184.072 162.065 183.922C161.791 183.768 161.58 183.594 161.433 183.4C161.285 183.203 161.171 183.04 161.091 182.911H160.999V186.659H159.909ZM160.98 180.455C160.98 180.99 161.059 181.462 161.216 181.872C161.373 182.278 161.602 182.597 161.904 182.827C162.205 183.055 162.575 183.169 163.012 183.169C163.467 183.169 163.847 183.049 164.152 182.809C164.46 182.566 164.69 182.24 164.844 181.83C165.001 181.418 165.08 180.959 165.08 180.455C165.08 179.956 165.003 179.507 164.849 179.107C164.698 178.703 164.469 178.385 164.161 178.151C163.856 177.914 163.473 177.795 163.012 177.795C162.568 177.795 162.196 177.908 161.894 178.132C161.593 178.354 161.365 178.665 161.211 179.065C161.057 179.462 160.98 179.925 160.98 180.455ZM168.773 179.476H170.804C171.635 179.476 172.271 179.687 172.711 180.108C173.151 180.53 173.371 181.064 173.371 181.71C173.371 182.135 173.272 182.521 173.075 182.869C172.878 183.214 172.589 183.489 172.208 183.695C171.826 183.898 171.358 184 170.804 184H167.831V176.909H168.921V182.984H170.804C171.235 182.984 171.589 182.871 171.866 182.643C172.143 182.415 172.281 182.123 172.281 181.766C172.281 181.39 172.143 181.084 171.866 180.847C171.589 180.61 171.235 180.491 170.804 180.491H168.773V179.476Z" fill="#8E8E8E"/>
<path d="M129.452 199V198.233L132.333 195.08C132.671 194.71 132.949 194.389 133.168 194.116C133.387 193.841 133.549 193.582 133.654 193.341C133.762 193.097 133.816 192.841 133.816 192.574C133.816 192.267 133.742 192.001 133.594 191.777C133.449 191.553 133.25 191.379 132.997 191.257C132.745 191.135 132.46 191.074 132.145 191.074C131.81 191.074 131.517 191.143 131.267 191.283C131.02 191.419 130.828 191.611 130.692 191.858C130.558 192.105 130.492 192.395 130.492 192.727H129.486C129.486 192.216 129.604 191.767 129.84 191.381C130.076 190.994 130.397 190.693 130.803 190.477C131.212 190.261 131.671 190.153 132.179 190.153C132.691 190.153 133.144 190.261 133.539 190.477C133.933 190.693 134.243 190.984 134.468 191.351C134.692 191.717 134.804 192.125 134.804 192.574C134.804 192.895 134.746 193.209 134.629 193.516C134.516 193.82 134.317 194.159 134.033 194.534C133.752 194.906 133.361 195.361 132.861 195.898L130.901 197.994V198.062H134.958V199H129.452ZM139.684 199.119C139.042 199.119 138.495 198.945 138.044 198.595C137.592 198.243 137.247 197.733 137.008 197.065C136.769 196.395 136.65 195.585 136.65 194.636C136.65 193.693 136.769 192.888 137.008 192.22C137.249 191.55 137.596 191.038 138.048 190.686C138.502 190.331 139.048 190.153 139.684 190.153C140.321 190.153 140.865 190.331 141.316 190.686C141.771 191.038 142.117 191.55 142.356 192.22C142.597 192.888 142.718 193.693 142.718 194.636C142.718 195.585 142.599 196.395 142.36 197.065C142.122 197.733 141.776 198.243 141.325 198.595C140.873 198.945 140.326 199.119 139.684 199.119ZM139.684 198.182C140.321 198.182 140.815 197.875 141.167 197.261C141.519 196.648 141.696 195.773 141.696 194.636C141.696 193.881 141.615 193.237 141.453 192.706C141.294 192.175 141.063 191.77 140.762 191.491C140.464 191.213 140.105 191.074 139.684 191.074C139.053 191.074 138.561 191.385 138.205 192.007C137.85 192.626 137.673 193.503 137.673 194.636C137.673 195.392 137.752 196.034 137.911 196.562C138.071 197.091 138.299 197.493 138.597 197.768C138.899 198.044 139.261 198.182 139.684 198.182ZM144.458 199V198.233L147.338 195.08C147.676 194.71 147.955 194.389 148.173 194.116C148.392 193.841 148.554 193.582 148.659 193.341C148.767 193.097 148.821 192.841 148.821 192.574C148.821 192.267 148.747 192.001 148.6 191.777C148.455 191.553 148.256 191.379 148.003 191.257C147.75 191.135 147.466 191.074 147.151 191.074C146.816 191.074 146.523 191.143 146.273 191.283C146.026 191.419 145.834 191.611 145.698 191.858C145.564 192.105 145.497 192.395 145.497 192.727H144.492C144.492 192.216 144.61 191.767 144.845 191.381C145.081 190.994 145.402 190.693 145.808 190.477C146.217 190.261 146.676 190.153 147.185 190.153C147.696 190.153 148.149 190.261 148.544 190.477C148.939 190.693 149.249 190.984 149.473 191.351C149.698 191.717 149.81 192.125 149.81 192.574C149.81 192.895 149.752 193.209 149.635 193.516C149.521 193.82 149.323 194.159 149.039 194.534C148.757 194.906 148.367 195.361 147.867 195.898L145.906 197.994V198.062H149.963V199H144.458ZM151.451 197.21V196.341L155.286 190.273H155.917V191.619H155.491L152.593 196.205V196.273H157.758V197.21H151.451ZM155.559 199V196.946V196.541V190.273H156.565V199H155.559Z" fill="#D1D1D1"/>
<path d="M217.664 179.273C217.664 180.27 217.484 181.132 217.124 181.858C216.763 182.584 216.269 183.144 215.642 183.538C215.014 183.932 214.297 184.129 213.49 184.129C212.684 184.129 211.967 183.932 211.339 183.538C210.711 183.144 210.217 182.584 209.857 181.858C209.497 181.132 209.317 180.27 209.317 179.273C209.317 178.276 209.497 177.414 209.857 176.688C210.217 175.961 210.711 175.401 211.339 175.007C211.967 174.613 212.684 174.416 213.49 174.416C214.297 174.416 215.014 174.613 215.642 175.007C216.269 175.401 216.763 175.961 217.124 176.688C217.484 177.414 217.664 178.276 217.664 179.273ZM216.556 179.273C216.556 178.454 216.419 177.763 216.145 177.2C215.874 176.637 215.506 176.21 215.042 175.921C214.58 175.632 214.063 175.487 213.49 175.487C212.918 175.487 212.399 175.632 211.935 175.921C211.473 176.21 211.105 176.637 210.831 177.2C210.56 177.763 210.425 178.454 210.425 179.273C210.425 180.091 210.56 180.782 210.831 181.346C211.105 181.909 211.473 182.335 211.935 182.624C212.399 182.914 212.918 183.058 213.49 183.058C214.063 183.058 214.58 182.914 215.042 182.624C215.506 182.335 215.874 181.909 216.145 181.346C216.419 180.782 216.556 180.091 216.556 179.273ZM219.441 184V176.909H220.53V179.993H221.251L223.799 176.909H225.202L222.34 180.325L225.239 184H223.836L221.509 181.009H220.53V184H219.441ZM226.017 177.925V176.909H231.779V177.925H229.452V184H228.362V177.925H226.017ZM237.633 184V177.906H235.75C235.325 177.906 234.991 178.005 234.748 178.202C234.505 178.399 234.383 178.67 234.383 179.014C234.383 179.353 234.493 179.619 234.711 179.813C234.933 180.007 235.236 180.104 235.621 180.104H237.91V181.119H235.621C235.14 181.119 234.727 181.035 234.379 180.865C234.031 180.696 233.763 180.455 233.576 180.141C233.388 179.824 233.294 179.448 233.294 179.014C233.294 178.577 233.392 178.202 233.589 177.888C233.786 177.574 234.068 177.332 234.434 177.163C234.803 176.994 235.242 176.909 235.75 176.909H238.667V184H237.633ZM232.906 184L234.919 180.473H236.101L234.088 184H232.906ZM245.93 174.25L246.484 174.915C246.269 175.124 246.02 175.27 245.736 175.353C245.453 175.436 245.133 175.487 244.776 175.506C244.419 175.524 244.022 175.543 243.585 175.561C243.093 175.58 242.685 175.7 242.362 175.921C242.039 176.143 241.789 176.463 241.614 176.881C241.439 177.3 241.326 177.814 241.277 178.423H241.369C241.609 177.98 241.942 177.654 242.366 177.445C242.791 177.235 243.247 177.131 243.733 177.131C244.287 177.131 244.785 177.26 245.229 177.518C245.672 177.777 246.023 178.16 246.281 178.668C246.54 179.176 246.669 179.802 246.669 180.547C246.669 181.289 246.537 181.929 246.272 182.467C246.01 183.006 245.643 183.421 245.169 183.714C244.698 184.003 244.145 184.148 243.511 184.148C242.877 184.148 242.322 183.998 241.845 183.7C241.368 183.398 240.997 182.952 240.732 182.361C240.468 181.767 240.335 181.033 240.335 180.159V179.402C240.335 177.823 240.603 176.626 241.138 175.81C241.677 174.995 242.486 174.573 243.567 174.545C243.948 174.533 244.288 174.53 244.587 174.536C244.885 174.542 245.146 174.529 245.367 174.495C245.589 174.461 245.776 174.379 245.93 174.25ZM243.511 183.169C243.939 183.169 244.307 183.061 244.615 182.846C244.926 182.63 245.164 182.327 245.33 181.936C245.496 181.542 245.58 181.079 245.58 180.547C245.58 180.03 245.495 179.59 245.326 179.227C245.159 178.863 244.921 178.586 244.61 178.396C244.299 178.205 243.927 178.109 243.493 178.109C243.176 178.109 242.891 178.163 242.639 178.271C242.386 178.379 242.171 178.537 241.992 178.746C241.814 178.956 241.676 179.211 241.577 179.513C241.482 179.814 241.431 180.159 241.425 180.547C241.425 181.341 241.611 181.976 241.983 182.453C242.356 182.931 242.865 183.169 243.511 183.169ZM248.336 186.659V176.909H249.388V178.036H249.517C249.597 177.912 249.708 177.755 249.85 177.565C249.994 177.371 250.201 177.198 250.468 177.048C250.739 176.894 251.105 176.817 251.567 176.817C252.164 176.817 252.69 176.966 253.146 177.265C253.601 177.563 253.957 177.986 254.212 178.534C254.468 179.082 254.595 179.728 254.595 180.473C254.595 181.224 254.468 181.875 254.212 182.426C253.957 182.974 253.603 183.398 253.151 183.7C252.698 183.998 252.176 184.148 251.586 184.148C251.13 184.148 250.765 184.072 250.491 183.922C250.218 183.768 250.007 183.594 249.859 183.4C249.711 183.203 249.597 183.04 249.517 182.911H249.425V186.659H248.336ZM249.407 180.455C249.407 180.99 249.485 181.462 249.642 181.872C249.799 182.278 250.028 182.597 250.33 182.827C250.631 183.055 251.001 183.169 251.438 183.169C251.893 183.169 252.273 183.049 252.578 182.809C252.886 182.566 253.117 182.24 253.271 181.83C253.428 181.418 253.506 180.959 253.506 180.455C253.506 179.956 253.429 179.507 253.275 179.107C253.124 178.703 252.895 178.385 252.587 178.151C252.283 177.914 251.899 177.795 251.438 177.795C250.995 177.795 250.622 177.908 250.321 178.132C250.019 178.354 249.791 178.665 249.637 179.065C249.484 179.462 249.407 179.925 249.407 180.455ZM257.199 179.476H259.23C260.061 179.476 260.697 179.687 261.137 180.108C261.577 180.53 261.797 181.064 261.797 181.71C261.797 182.135 261.699 182.521 261.502 182.869C261.305 183.214 261.015 183.489 260.634 183.695C260.252 183.898 259.784 184 259.23 184H256.257V176.909H257.347V182.984H259.23C259.661 182.984 260.015 182.871 260.292 182.643C260.569 182.415 260.708 182.123 260.708 181.766C260.708 181.39 260.569 181.084 260.292 180.847C260.015 180.61 259.661 180.491 259.23 180.491H257.199V179.476Z" fill="#8E8E8E"/>
<path d="M221.452 199V198.233L224.333 195.08C224.671 194.71 224.949 194.389 225.168 194.116C225.387 193.841 225.549 193.582 225.654 193.341C225.762 193.097 225.816 192.841 225.816 192.574C225.816 192.267 225.742 192.001 225.594 191.777C225.449 191.553 225.25 191.379 224.997 191.257C224.745 191.135 224.46 191.074 224.145 191.074C223.81 191.074 223.517 191.143 223.267 191.283C223.02 191.419 222.828 191.611 222.692 191.858C222.558 192.105 222.492 192.395 222.492 192.727H221.486C221.486 192.216 221.604 191.767 221.84 191.381C222.076 190.994 222.397 190.693 222.803 190.477C223.212 190.261 223.671 190.153 224.179 190.153C224.691 190.153 225.144 190.261 225.539 190.477C225.933 190.693 226.243 190.984 226.468 191.351C226.692 191.717 226.804 192.125 226.804 192.574C226.804 192.895 226.746 193.209 226.629 193.516C226.516 193.82 226.317 194.159 226.033 194.534C225.752 194.906 225.361 195.361 224.861 195.898L222.901 197.994V198.062H226.958V199H221.452ZM231.684 199.119C231.042 199.119 230.495 198.945 230.044 198.595C229.592 198.243 229.247 197.733 229.008 197.065C228.769 196.395 228.65 195.585 228.65 194.636C228.65 193.693 228.769 192.888 229.008 192.22C229.249 191.55 229.596 191.038 230.048 190.686C230.502 190.331 231.048 190.153 231.684 190.153C232.321 190.153 232.865 190.331 233.316 190.686C233.771 191.038 234.117 191.55 234.356 192.22C234.597 192.888 234.718 193.693 234.718 194.636C234.718 195.585 234.599 196.395 234.36 197.065C234.122 197.733 233.776 198.243 233.325 198.595C232.873 198.945 232.326 199.119 231.684 199.119ZM231.684 198.182C232.321 198.182 232.815 197.875 233.167 197.261C233.519 196.648 233.696 195.773 233.696 194.636C233.696 193.881 233.615 193.237 233.453 192.706C233.294 192.175 233.063 191.77 232.762 191.491C232.464 191.213 232.105 191.074 231.684 191.074C231.053 191.074 230.561 191.385 230.205 192.007C229.85 192.626 229.673 193.503 229.673 194.636C229.673 195.392 229.752 196.034 229.911 196.562C230.071 197.091 230.299 197.493 230.597 197.768C230.899 198.044 231.261 198.182 231.684 198.182ZM236.458 199V198.233L239.338 195.08C239.676 194.71 239.955 194.389 240.173 194.116C240.392 193.841 240.554 193.582 240.659 193.341C240.767 193.097 240.821 192.841 240.821 192.574C240.821 192.267 240.747 192.001 240.6 191.777C240.455 191.553 240.256 191.379 240.003 191.257C239.75 191.135 239.466 191.074 239.151 191.074C238.816 191.074 238.523 191.143 238.273 191.283C238.026 191.419 237.834 191.611 237.698 191.858C237.564 192.105 237.497 192.395 237.497 192.727H236.492C236.492 192.216 236.61 191.767 236.845 191.381C237.081 190.994 237.402 190.693 237.808 190.477C238.217 190.261 238.676 190.153 239.185 190.153C239.696 190.153 240.149 190.261 240.544 190.477C240.939 190.693 241.249 190.984 241.473 191.351C241.698 191.717 241.81 192.125 241.81 192.574C241.81 192.895 241.752 193.209 241.635 193.516C241.521 193.82 241.323 194.159 241.039 194.534C240.757 194.906 240.367 195.361 239.867 195.898L237.906 197.994V198.062H241.963V199H236.458ZM243.451 197.21V196.341L247.286 190.273H247.917V191.619H247.491L244.593 196.205V196.273H249.758V197.21H243.451ZM247.559 199V196.946V196.541V190.273H248.565V199H247.559Z" fill="#D1D1D1"/>
<path d="M304.911 185V175.545H306.056V179.756H311.097V175.545H312.242V185H311.097V180.771H306.056V185H304.911ZM317.267 185.148C316.627 185.148 316.065 184.995 315.582 184.691C315.102 184.386 314.726 183.96 314.456 183.412C314.188 182.864 314.054 182.224 314.054 181.491C314.054 180.753 314.188 180.108 314.456 179.557C314.726 179.006 315.102 178.578 315.582 178.274C316.065 177.969 316.627 177.817 317.267 177.817C317.907 177.817 318.467 177.969 318.947 178.274C319.431 178.578 319.806 179.006 320.074 179.557C320.345 180.108 320.48 180.753 320.48 181.491C320.48 182.224 320.345 182.864 320.074 183.412C319.806 183.96 319.431 184.386 318.947 184.691C318.467 184.995 317.907 185.148 317.267 185.148ZM317.267 184.169C317.753 184.169 318.153 184.044 318.467 183.795C318.781 183.546 319.014 183.218 319.164 182.812C319.315 182.406 319.391 181.965 319.391 181.491C319.391 181.018 319.315 180.576 319.164 180.167C319.014 179.757 318.781 179.426 318.467 179.174C318.153 178.922 317.753 178.795 317.267 178.795C316.781 178.795 316.381 178.922 316.067 179.174C315.753 179.426 315.52 179.757 315.37 180.167C315.219 180.576 315.143 181.018 315.143 181.491C315.143 181.965 315.219 182.406 315.37 182.812C315.52 183.218 315.753 183.546 316.067 183.795C316.381 184.044 316.781 184.169 317.267 184.169ZM326.409 185V178.906H324.525C324.101 178.906 323.767 179.005 323.523 179.202C323.28 179.399 323.159 179.67 323.159 180.014C323.159 180.353 323.268 180.619 323.487 180.813C323.708 181.007 324.011 181.104 324.396 181.104H326.686V182.119H324.396C323.916 182.119 323.502 182.035 323.154 181.865C322.806 181.696 322.539 181.455 322.351 181.141C322.163 180.824 322.069 180.448 322.069 180.014C322.069 179.577 322.168 179.202 322.365 178.888C322.562 178.574 322.843 178.332 323.21 178.163C323.579 177.994 324.017 177.909 324.525 177.909H327.443V185H326.409ZM321.682 185L323.694 181.473H324.876L322.863 185H321.682ZM334.706 175.25L335.26 175.915C335.044 176.124 334.795 176.27 334.512 176.353C334.229 176.436 333.909 176.487 333.552 176.506C333.195 176.524 332.798 176.543 332.361 176.561C331.868 176.58 331.46 176.7 331.137 176.921C330.814 177.143 330.565 177.463 330.389 177.881C330.214 178.3 330.102 178.814 330.052 179.423H330.145C330.385 178.98 330.717 178.654 331.142 178.445C331.567 178.235 332.022 178.131 332.508 178.131C333.062 178.131 333.561 178.26 334.004 178.518C334.447 178.777 334.798 179.16 335.057 179.668C335.315 180.176 335.444 180.802 335.444 181.547C335.444 182.289 335.312 182.929 335.047 183.467C334.786 184.006 334.418 184.421 333.944 184.714C333.473 185.003 332.921 185.148 332.287 185.148C331.653 185.148 331.097 184.998 330.62 184.7C330.143 184.398 329.772 183.952 329.508 183.361C329.243 182.767 329.111 182.033 329.111 181.159V180.402C329.111 178.823 329.378 177.626 329.914 176.81C330.452 175.995 331.262 175.573 332.342 175.545C332.724 175.533 333.064 175.53 333.362 175.536C333.661 175.542 333.921 175.529 334.143 175.495C334.364 175.461 334.552 175.379 334.706 175.25ZM332.287 184.169C332.715 184.169 333.082 184.061 333.39 183.846C333.701 183.63 333.939 183.327 334.106 182.936C334.272 182.542 334.355 182.079 334.355 181.547C334.355 181.03 334.27 180.59 334.101 180.227C333.935 179.863 333.696 179.586 333.385 179.396C333.075 179.205 332.702 179.109 332.268 179.109C331.951 179.109 331.667 179.163 331.414 179.271C331.162 179.379 330.946 179.537 330.768 179.746C330.589 179.956 330.451 180.211 330.352 180.513C330.257 180.814 330.206 181.159 330.2 181.547C330.2 182.341 330.386 182.976 330.759 183.453C331.131 183.931 331.64 184.169 332.287 184.169ZM337.111 187.659V177.909H338.163V179.036H338.293C338.373 178.912 338.484 178.755 338.625 178.565C338.77 178.371 338.976 178.198 339.244 178.048C339.515 177.894 339.881 177.817 340.342 177.817C340.94 177.817 341.466 177.966 341.921 178.265C342.377 178.563 342.732 178.986 342.988 179.534C343.243 180.082 343.371 180.728 343.371 181.473C343.371 182.224 343.243 182.875 342.988 183.426C342.732 183.974 342.378 184.398 341.926 184.7C341.473 184.998 340.952 185.148 340.361 185.148C339.905 185.148 339.541 185.072 339.267 184.922C338.993 184.768 338.782 184.594 338.634 184.4C338.487 184.203 338.373 184.04 338.293 183.911H338.2V187.659H337.111ZM338.182 181.455C338.182 181.99 338.26 182.462 338.417 182.872C338.574 183.278 338.804 183.597 339.105 183.827C339.407 184.055 339.776 184.169 340.213 184.169C340.669 184.169 341.049 184.049 341.353 183.809C341.661 183.566 341.892 183.24 342.046 182.83C342.203 182.418 342.281 181.959 342.281 181.455C342.281 180.956 342.204 180.507 342.051 180.107C341.9 179.703 341.67 179.385 341.363 179.151C341.058 178.914 340.675 178.795 340.213 178.795C339.77 178.795 339.398 178.908 339.096 179.132C338.794 179.354 338.567 179.665 338.413 180.065C338.259 180.462 338.182 180.925 338.182 181.455ZM345.975 180.476H348.006C348.837 180.476 349.472 180.687 349.912 181.108C350.353 181.53 350.573 182.064 350.573 182.71C350.573 183.135 350.474 183.521 350.277 183.869C350.08 184.214 349.791 184.489 349.409 184.695C349.028 184.898 348.56 185 348.006 185H345.033V177.909H346.122V183.984H348.006C348.437 183.984 348.791 183.871 349.068 183.643C349.345 183.415 349.483 183.123 349.483 182.766C349.483 182.39 349.345 182.084 349.068 181.847C348.791 181.61 348.437 181.491 348.006 181.491H345.975V180.476ZM313.452 200V199.233L316.333 196.08C316.671 195.71 316.949 195.389 317.168 195.116C317.387 194.841 317.549 194.582 317.654 194.341C317.762 194.097 317.816 193.841 317.816 193.574C317.816 193.267 317.742 193.001 317.594 192.777C317.449 192.553 317.25 192.379 316.997 192.257C316.745 192.135 316.46 192.074 316.145 192.074C315.81 192.074 315.517 192.143 315.267 192.283C315.02 192.419 314.828 192.611 314.692 192.858C314.558 193.105 314.492 193.395 314.492 193.727H313.486C313.486 193.216 313.604 192.767 313.84 192.381C314.076 191.994 314.397 191.693 314.803 191.477C315.212 191.261 315.671 191.153 316.179 191.153C316.691 191.153 317.144 191.261 317.539 191.477C317.933 191.693 318.243 191.984 318.468 192.351C318.692 192.717 318.804 193.125 318.804 193.574C318.804 193.895 318.746 194.209 318.629 194.516C318.516 194.82 318.317 195.159 318.033 195.534C317.752 195.906 317.361 196.361 316.861 196.898L314.901 198.994V199.062H318.958V200H313.452ZM323.684 200.119C323.042 200.119 322.495 199.945 322.044 199.595C321.592 199.243 321.247 198.733 321.008 198.065C320.769 197.395 320.65 196.585 320.65 195.636C320.65 194.693 320.769 193.888 321.008 193.22C321.249 192.55 321.596 192.038 322.048 191.686C322.502 191.331 323.048 191.153 323.684 191.153C324.321 191.153 324.865 191.331 325.316 191.686C325.771 192.038 326.117 192.55 326.356 193.22C326.597 193.888 326.718 194.693 326.718 195.636C326.718 196.585 326.599 197.395 326.36 198.065C326.122 198.733 325.776 199.243 325.325 199.595C324.873 199.945 324.326 200.119 323.684 200.119ZM323.684 199.182C324.321 199.182 324.815 198.875 325.167 198.261C325.519 197.648 325.696 196.773 325.696 195.636C325.696 194.881 325.615 194.237 325.453 193.706C325.294 193.175 325.063 192.77 324.762 192.491C324.464 192.213 324.105 192.074 323.684 192.074C323.053 192.074 322.561 192.385 322.205 193.007C321.85 193.626 321.673 194.503 321.673 195.636C321.673 196.392 321.752 197.034 321.911 197.562C322.071 198.091 322.299 198.493 322.597 198.768C322.899 199.044 323.261 199.182 323.684 199.182ZM328.458 200V199.233L331.338 196.08C331.676 195.71 331.955 195.389 332.173 195.116C332.392 194.841 332.554 194.582 332.659 194.341C332.767 194.097 332.821 193.841 332.821 193.574C332.821 193.267 332.747 193.001 332.6 192.777C332.455 192.553 332.256 192.379 332.003 192.257C331.75 192.135 331.466 192.074 331.151 192.074C330.816 192.074 330.523 192.143 330.273 192.283C330.026 192.419 329.834 192.611 329.698 192.858C329.564 193.105 329.497 193.395 329.497 193.727H328.492C328.492 193.216 328.61 192.767 328.845 192.381C329.081 191.994 329.402 191.693 329.808 191.477C330.217 191.261 330.676 191.153 331.185 191.153C331.696 191.153 332.149 191.261 332.544 191.477C332.939 191.693 333.249 191.984 333.473 192.351C333.698 192.717 333.81 193.125 333.81 193.574C333.81 193.895 333.752 194.209 333.635 194.516C333.521 194.82 333.323 195.159 333.039 195.534C332.757 195.906 332.367 196.361 331.867 196.898L329.906 198.994V199.062H333.963V200H328.458ZM335.451 198.21V197.341L339.286 191.273H339.917V192.619H339.491L336.593 197.205V197.273H341.758V198.21H335.451ZM339.559 200V197.946V197.541V191.273H340.565V200H339.559Z" fill="#494949"/>
<path d="M37.2324 60.8324C37.2324 57.9559 39.5643 55.624 42.4408 55.624C45.3172 55.624 47.6491 57.9559 47.6491 60.8324V156H37.2324V60.8324Z" fill="#F2F2F2"/>
<path d="M55.9824 79.0257C55.9824 76.1492 58.3143 73.8174 61.1908 73.8174C64.0672 73.8174 66.3991 76.1492 66.3991 79.0257V156H55.9824V79.0257Z" fill="#E7E7E7"/>
<path d="M129.232 75.0921C129.232 72.2156 131.564 69.8838 134.441 69.8838C137.317 69.8838 139.649 72.2156 139.649 75.0921V156H129.232V75.0921Z" fill="#F2F2F2"/>
<path d="M147.982 55.2083C147.982 52.3319 150.314 50 153.191 50C156.067 50 158.399 52.3319 158.399 55.2083V156H147.982V55.2083Z" fill="#E7E7E7"/>
<path d="M221.232 67.7166C221.232 64.8402 223.564 62.5083 226.441 62.5083C229.317 62.5083 231.649 64.8401 231.649 67.7166V156H221.232V67.7166Z" fill="#F2F2F2"/>
<path d="M239.982 75.0921C239.982 72.2156 242.314 69.8838 245.191 69.8838C248.067 69.8838 250.399 72.2156 250.399 75.0921V156H239.982V75.0921Z" fill="#E7E7E7"/>
<path d="M313.232 94.2083C313.232 91.3318 315.564 89 318.441 89C321.317 89 323.649 91.3318 323.649 94.2083V156H313.232V94.2083Z" fill="#8E8E8E"/>
<path d="M331.982 55.2083C331.982 52.3319 334.314 50 337.191 50C340.067 50 342.399 52.3319 342.399 55.2083V156H331.982V55.2083Z" fill="#494949"/>
<rect x="0.232422" y="156" width="390.625" height="2" fill="#F2F2F2"/>
</g>
<defs>
<clipPath id="clip0_98_6498">
<rect width="375" height="160" fill="white" transform="translate(0.232422 50)"/>
</clipPath>
</defs>
</svg>
