<svg width="343" height="74" viewBox="0 0 343 74" fill="none" xmlns="http://www.w3.org/2000/svg">
<rect width="162" height="32" rx="16" fill="black"/>
<path d="M26.9531 12V20H25.9844V12.8594H21.9531V20H20.9844V12H26.9531ZM29.4641 18.6406L32.3547 14H33.4172V20H32.4954V15.3594L29.6204 20H28.5422V14H29.4641V18.6406ZM34.0493 14.8594V14H38.9243V14.8594H36.9555V20H36.0337V14.8594H34.0493ZM41.4831 20.1406C41.1029 20.1406 40.7579 20.069 40.448 19.9258C40.1381 19.7799 39.892 19.5703 39.7097 19.2969C39.5274 19.0208 39.4363 18.6875 39.4363 18.2969C39.4363 17.9531 39.504 17.6745 39.6394 17.4609C39.7748 17.2448 39.9558 17.0755 40.1823 16.9531C40.4089 16.8307 40.6589 16.7396 40.9323 16.6797C41.2084 16.6172 41.4857 16.5677 41.7644 16.5313C42.129 16.4844 42.4245 16.4492 42.6511 16.4258C42.8803 16.3997 43.0469 16.3568 43.1511 16.2969C43.2579 16.237 43.3113 16.1328 43.3113 15.9844V15.9531C43.3113 15.5677 43.2058 15.2682 42.9948 15.0547C42.7865 14.8411 42.4701 14.7344 42.0456 14.7344C41.6055 14.7344 41.2605 14.8307 41.0105 15.0234C40.7605 15.2161 40.5847 15.4219 40.4831 15.6406L39.6081 15.3281C39.7644 14.9635 39.9727 14.6797 40.2331 14.4766C40.4961 14.2708 40.7826 14.1276 41.0925 14.0469C41.405 13.9635 41.7123 13.9219 42.0144 13.9219C42.2071 13.9219 42.4284 13.9453 42.6784 13.9922C42.931 14.0365 43.1745 14.1289 43.4089 14.2695C43.6459 14.4102 43.8425 14.6224 43.9988 14.9062C44.155 15.1901 44.2331 15.5703 44.2331 16.0469V20H43.3113V19.1875H43.2644C43.2019 19.3177 43.0977 19.457 42.9519 19.6055C42.806 19.7539 42.612 19.8802 42.3698 19.9844C42.1277 20.0885 41.8321 20.1406 41.4831 20.1406ZM41.6238 19.3125C41.9883 19.3125 42.2956 19.2409 42.5456 19.0977C42.7982 18.9544 42.9883 18.7695 43.1159 18.543C43.2461 18.3164 43.3113 18.0781 43.3113 17.8281V16.9844C43.2722 17.0312 43.1863 17.0742 43.0534 17.1133C42.9232 17.1497 42.7722 17.1823 42.6003 17.2109C42.431 17.237 42.2657 17.2604 42.1042 17.2812C41.9454 17.2995 41.8165 17.3151 41.7175 17.3281C41.4779 17.3594 41.254 17.4102 41.0456 17.4805C40.8399 17.5482 40.6732 17.651 40.5456 17.7891C40.4206 17.9245 40.3581 18.1094 40.3581 18.3437C40.3581 18.6641 40.4766 18.9062 40.7136 19.0703C40.9532 19.2318 41.2566 19.3125 41.6238 19.3125ZM49.6914 16.5781V17.4375H46.3789V16.5781H49.6914ZM46.5976 14V20H45.6757V14H46.5976ZM50.3945 14V20H49.4726V14H50.3945ZM52.76 18.6406L55.6506 14H56.7131V20H55.7912V15.3594L52.9162 20H51.8381V14H52.76V18.6406ZM60.6772 20.125C60.0991 20.125 59.6004 19.9974 59.1811 19.7422C58.7644 19.4844 58.4428 19.125 58.2163 18.6641C57.9923 18.2005 57.8803 17.6615 57.8803 17.0469C57.8803 16.4323 57.9923 15.8906 58.2163 15.4219C58.4428 14.9505 58.7579 14.5833 59.1616 14.3203C59.5678 14.0547 60.0418 13.9219 60.5834 13.9219C60.8959 13.9219 61.2045 13.974 61.5092 14.0781C61.8139 14.1823 62.0913 14.3516 62.3413 14.5859C62.5913 14.8177 62.7905 15.125 62.9389 15.5078C63.0873 15.8906 63.1616 16.362 63.1616 16.9219V17.3125H58.5366V16.5156H62.2241C62.2241 16.1771 62.1564 15.875 62.0209 15.6094C61.8881 15.3437 61.698 15.1341 61.4506 14.9805C61.2058 14.8268 60.9168 14.75 60.5834 14.75C60.2163 14.75 59.8985 14.8411 59.6303 15.0234C59.3647 15.2031 59.1603 15.4375 59.017 15.7266C58.8738 16.0156 58.8022 16.3255 58.8022 16.6562V17.1875C58.8022 17.6406 58.8803 18.0247 59.0366 18.3398C59.1954 18.6523 59.4155 18.8906 59.6967 19.0547C59.978 19.2161 60.3048 19.2969 60.6772 19.2969C60.9194 19.2969 61.1381 19.263 61.3334 19.1953C61.5314 19.125 61.7019 19.0208 61.8452 18.8828C61.9884 18.7422 62.0991 18.5677 62.1772 18.3594L63.0678 18.6094C62.9741 18.9115 62.8165 19.1771 62.5952 19.4062C62.3738 19.6328 62.1004 19.8099 61.7748 19.9375C61.4493 20.0625 61.0834 20.125 60.6772 20.125ZM67.5058 16C67.5058 15.0156 67.6334 14.1107 67.8886 13.2852C68.1464 12.457 68.5136 11.6953 68.9902 11H69.8027C69.6152 11.2578 69.4394 11.5755 69.2753 11.9531C69.1139 12.3281 68.9719 12.7409 68.8495 13.1914C68.7271 13.6393 68.6308 14.1029 68.5605 14.582C68.4928 15.0612 68.4589 15.5339 68.4589 16C68.4589 16.6198 68.5188 17.2487 68.6386 17.8867C68.7584 18.5247 68.9198 19.1172 69.123 19.6641C69.3261 20.2109 69.5527 20.6563 69.8027 21H68.9902C68.5136 20.3047 68.1464 19.5443 67.8886 18.7187C67.6334 17.8906 67.5058 16.9844 67.5058 16ZM70.9074 20V19.2969L73.548 16.4062C73.8579 16.0677 74.1131 15.7734 74.3136 15.5234C74.5142 15.2708 74.6626 15.0339 74.7589 14.8125C74.8579 14.5885 74.9074 14.3542 74.9074 14.1094C74.9074 13.8281 74.8397 13.5846 74.7043 13.3789C74.5714 13.1732 74.3892 13.0143 74.1574 12.9023C73.9256 12.7904 73.6652 12.7344 73.3761 12.7344C73.0688 12.7344 72.8006 12.7982 72.5714 12.9258C72.3449 13.0508 72.1691 13.2266 72.0441 13.4531C71.9217 13.6797 71.8605 13.9453 71.8605 14.25H70.9386C70.9386 13.7812 71.0467 13.3698 71.2629 13.0156C71.479 12.6615 71.7733 12.3854 72.1457 12.1875C72.5207 11.9896 72.9412 11.8906 73.4074 11.8906C73.8761 11.8906 74.2915 11.9896 74.6535 12.1875C75.0155 12.3854 75.2993 12.6523 75.505 12.9883C75.7108 13.3242 75.8136 13.6979 75.8136 14.1094C75.8136 14.4036 75.7602 14.6914 75.6535 14.9727C75.5493 15.2513 75.367 15.5625 75.1066 15.9062C74.8488 16.2474 74.4907 16.6641 74.0324 17.1562L72.2355 19.0781V19.1406H75.9543V20H70.9074ZM79.9369 20.1094C79.3484 20.1094 78.8471 19.9492 78.433 19.6289C78.0189 19.306 77.7025 18.8385 77.4838 18.2266C77.265 17.612 77.1557 16.8698 77.1557 16C77.1557 15.1354 77.265 14.3971 77.4838 13.7852C77.7051 13.1706 78.0229 12.7018 78.4369 12.3789C78.8536 12.0534 79.3536 11.8906 79.9369 11.8906C80.5202 11.8906 81.0189 12.0534 81.433 12.3789C81.8497 12.7018 82.1674 13.1706 82.3861 13.7852C82.6075 14.3971 82.7182 15.1354 82.7182 16C82.7182 16.8698 82.6088 17.612 82.39 18.2266C82.1713 18.8385 81.8549 19.306 81.4408 19.6289C81.0268 19.9492 80.5255 20.1094 79.9369 20.1094ZM79.9369 19.25C80.5202 19.25 80.9734 18.9687 81.2963 18.4062C81.6192 17.8437 81.7807 17.0417 81.7807 16C81.7807 15.3073 81.7064 14.7174 81.558 14.2305C81.4122 13.7435 81.2012 13.3724 80.9252 13.1172C80.6518 12.862 80.3223 12.7344 79.9369 12.7344C79.3588 12.7344 78.907 13.0195 78.5814 13.5898C78.2559 14.1576 78.0932 14.9609 78.0932 16C78.0932 16.6927 78.1661 17.2812 78.3119 17.7656C78.4577 18.25 78.6674 18.6185 78.9408 18.8711C79.2169 19.1237 79.5489 19.25 79.9369 19.25ZM88.0407 18.5V18.0781C88.0407 17.7865 88.1006 17.5195 88.2204 17.2773C88.3427 17.0326 88.5198 16.8372 88.7516 16.6914C88.986 16.543 89.2698 16.4687 89.6032 16.4687C89.9417 16.4687 90.2256 16.543 90.4547 16.6914C90.6839 16.8372 90.8571 17.0326 90.9743 17.2773C91.0914 17.5195 91.15 17.7865 91.15 18.0781V18.5C91.15 18.7917 91.0901 19.0599 90.9704 19.3047C90.8532 19.5469 90.6787 19.7422 90.4469 19.8906C90.2177 20.0365 89.9365 20.1094 89.6032 20.1094C89.2646 20.1094 88.9795 20.0365 88.7477 19.8906C88.5159 19.7422 88.3401 19.5469 88.2204 19.3047C88.1006 19.0599 88.0407 18.7917 88.0407 18.5ZM88.8375 18.0781V18.5C88.8375 18.7422 88.8948 18.9596 89.0094 19.1523C89.124 19.3424 89.3219 19.4375 89.6032 19.4375C89.8766 19.4375 90.0693 19.3424 90.1813 19.1523C90.2959 18.9596 90.3532 18.7422 90.3532 18.5V18.0781C90.3532 17.8359 90.2985 17.6198 90.1891 17.4297C90.0797 17.237 89.8844 17.1406 89.6032 17.1406C89.3297 17.1406 89.1331 17.237 89.0133 17.4297C88.8961 17.6198 88.8375 17.8359 88.8375 18.0781ZM84.0563 13.9219V13.5C84.0563 13.2083 84.1162 12.9414 84.236 12.6992C84.3584 12.4544 84.5355 12.2591 84.7672 12.1133C85.0016 11.9648 85.2855 11.8906 85.6188 11.8906C85.9573 11.8906 86.2412 11.9648 86.4704 12.1133C86.6995 12.2591 86.8727 12.4544 86.9899 12.6992C87.1071 12.9414 87.1657 13.2083 87.1657 13.5V13.9219C87.1657 14.2135 87.1058 14.4818 86.986 14.7266C86.8688 14.9687 86.6943 15.1641 86.4625 15.3125C86.2334 15.4583 85.9521 15.5312 85.6188 15.5312C85.2802 15.5312 84.9951 15.4583 84.7633 15.3125C84.5316 15.1641 84.3558 14.9687 84.236 14.7266C84.1162 14.4818 84.0563 14.2135 84.0563 13.9219ZM84.8532 13.5V13.9219C84.8532 14.1641 84.9105 14.3815 85.025 14.5742C85.1396 14.7643 85.3375 14.8594 85.6188 14.8594C85.8922 14.8594 86.0849 14.7643 86.1969 14.5742C86.3115 14.3815 86.3688 14.1641 86.3688 13.9219V13.5C86.3688 13.2578 86.3141 13.0417 86.2047 12.8516C86.0954 12.6589 85.9 12.5625 85.6188 12.5625C85.3454 12.5625 85.1487 12.6589 85.0289 12.8516C84.9118 13.0417 84.8532 13.2578 84.8532 13.5ZM84.3532 20L89.8532 12H90.7438L85.2438 20H84.3532ZM94.6444 16C94.6444 16.9844 94.5155 17.8906 94.2577 18.7187C94.0025 19.5443 93.6366 20.3047 93.16 21H92.3475C92.535 20.7422 92.7095 20.4245 92.871 20.0469C93.035 19.6719 93.1783 19.2604 93.3007 18.8125C93.4231 18.362 93.5181 17.8971 93.5858 17.418C93.6561 16.9362 93.6913 16.4635 93.6913 16C93.6913 15.3802 93.6314 14.7513 93.5116 14.1133C93.3918 13.4753 93.2304 12.8828 93.0272 12.3359C92.8241 11.7891 92.5975 11.3437 92.3475 11H93.16C93.6366 11.6953 94.0025 12.457 94.2577 13.2852C94.5155 14.1107 94.6444 15.0156 94.6444 16ZM104.925 12V20H103.957V13.0156H103.91L101.957 14.3125V13.3281L103.957 12H104.925ZM106.986 20V19.2969L109.627 16.4062C109.937 16.0677 110.192 15.7734 110.392 15.5234C110.593 15.2708 110.741 15.0339 110.838 14.8125C110.937 14.5885 110.986 14.3542 110.986 14.1094C110.986 13.8281 110.918 13.5846 110.783 13.3789C110.65 13.1732 110.468 13.0143 110.236 12.9023C110.004 12.7904 109.744 12.7344 109.455 12.7344C109.148 12.7344 108.879 12.7982 108.65 12.9258C108.424 13.0508 108.248 13.2266 108.123 13.4531C108 13.6797 107.939 13.9453 107.939 14.25H107.017C107.017 13.7812 107.125 13.3698 107.342 13.0156C107.558 12.6615 107.852 12.3854 108.224 12.1875C108.599 11.9896 109.02 11.8906 109.486 11.8906C109.955 11.8906 110.37 11.9896 110.732 12.1875C111.094 12.3854 111.378 12.6523 111.584 12.9883C111.79 13.3242 111.892 13.6979 111.892 14.1094C111.892 14.4036 111.839 14.6914 111.732 14.9727C111.628 15.2513 111.446 15.5625 111.185 15.9062C110.928 16.2474 110.57 16.6641 110.111 17.1562L108.314 19.0781V19.1406H112.033V20H106.986ZM118.916 20.1094C118.588 20.1042 118.26 20.0417 117.932 19.9219C117.604 19.8021 117.304 19.6003 117.034 19.3164C116.763 19.0299 116.545 18.6432 116.381 18.1562C116.217 17.6667 116.135 17.0521 116.135 16.3125C116.135 15.6042 116.201 14.9766 116.334 14.4297C116.467 13.8802 116.66 13.418 116.912 13.043C117.165 12.6654 117.47 12.3789 117.826 12.1836C118.186 11.9883 118.591 11.8906 119.041 11.8906C119.489 11.8906 119.888 11.9805 120.237 12.1602C120.588 12.3372 120.875 12.5846 121.096 12.9023C121.317 13.2201 121.461 13.5859 121.526 14H120.573C120.484 13.6406 120.312 13.3424 120.057 13.1055C119.802 12.8685 119.463 12.75 119.041 12.75C118.422 12.75 117.933 13.0195 117.576 13.5586C117.222 14.0977 117.044 14.8542 117.041 15.8281H117.104C117.25 15.6068 117.423 15.418 117.623 15.2617C117.826 15.1029 118.05 14.9805 118.295 14.8945C118.54 14.8086 118.799 14.7656 119.073 14.7656C119.531 14.7656 119.95 14.8802 120.33 15.1094C120.711 15.3359 121.015 15.6497 121.244 16.0508C121.474 16.4492 121.588 16.9062 121.588 17.4219C121.588 17.9167 121.478 18.3698 121.256 18.7812C121.035 19.1901 120.724 19.5156 120.323 19.7578C119.924 19.9974 119.455 20.1146 118.916 20.1094ZM118.916 19.25C119.244 19.25 119.539 19.168 119.799 19.0039C120.062 18.8398 120.269 18.6198 120.42 18.3437C120.574 18.0677 120.651 17.7604 120.651 17.4219C120.651 17.0911 120.576 16.7904 120.428 16.5195C120.282 16.2461 120.08 16.0286 119.823 15.8672C119.567 15.7057 119.276 15.625 118.948 15.625C118.7 15.625 118.47 15.6745 118.256 15.7734C118.043 15.8698 117.855 16.0026 117.694 16.1719C117.535 16.3411 117.41 16.5352 117.319 16.7539C117.228 16.9701 117.182 17.1979 117.182 17.4375C117.182 17.7552 117.256 18.0521 117.405 18.3281C117.556 18.6042 117.761 18.8268 118.022 18.9961C118.285 19.1654 118.583 19.25 118.916 19.25ZM125.587 20.1094C125.072 20.1094 124.612 20.0208 124.209 19.8437C123.808 19.6667 123.489 19.4206 123.252 19.1055C123.017 18.7878 122.89 18.4193 122.869 18H123.853C123.874 18.2578 123.962 18.4805 124.119 18.668C124.275 18.8529 124.479 18.9961 124.732 19.0977C124.985 19.1992 125.265 19.25 125.572 19.25C125.916 19.25 126.22 19.1901 126.486 19.0703C126.752 18.9505 126.96 18.7839 127.111 18.5703C127.262 18.3568 127.337 18.1094 127.337 17.8281C127.337 17.5339 127.265 17.2747 127.119 17.0508C126.973 16.8242 126.759 16.6471 126.478 16.5195C126.197 16.3919 125.853 16.3281 125.447 16.3281H124.806V15.4687H125.447C125.765 15.4687 126.043 15.4115 126.283 15.2969C126.525 15.1823 126.714 15.0208 126.849 14.8125C126.987 14.6042 127.056 14.3594 127.056 14.0781C127.056 13.8073 126.996 13.5716 126.877 13.3711C126.757 13.1706 126.587 13.0143 126.369 12.9023C126.153 12.7904 125.897 12.7344 125.603 12.7344C125.327 12.7344 125.067 12.7852 124.822 12.8867C124.58 12.9857 124.382 13.1302 124.228 13.3203C124.074 13.5078 123.991 13.7344 123.978 14H123.041C123.056 13.5807 123.183 13.2135 123.419 12.8984C123.656 12.5807 123.966 12.3333 124.349 12.1562C124.735 11.9792 125.158 11.8906 125.619 11.8906C126.114 11.8906 126.538 11.9909 126.892 12.1914C127.246 12.3893 127.518 12.651 127.709 12.9766C127.899 13.3021 127.994 13.6536 127.994 14.0313C127.994 14.4818 127.875 14.8659 127.638 15.1836C127.404 15.5013 127.085 15.7214 126.681 15.8438V15.9062C127.186 15.9896 127.581 16.2044 127.865 16.5508C128.149 16.8945 128.291 17.3203 128.291 17.8281C128.291 18.263 128.172 18.6536 127.935 19C127.701 19.3437 127.38 19.6146 126.974 19.8125C126.568 20.0104 126.106 20.1094 125.587 20.1094ZM132.461 12V20H131.492V13.0156H131.445L129.492 14.3125V13.3281L131.492 12H132.461ZM138.162 16.75H134.1V15.8906H138.162C138.537 15.8906 138.847 15.8255 139.092 15.6953C139.337 15.5625 139.519 15.3828 139.639 15.1562C139.759 14.9271 139.818 14.6667 139.818 14.375C139.818 14.0833 139.759 13.8242 139.639 13.5977C139.519 13.3685 139.337 13.1888 139.092 13.0586C138.847 12.9258 138.537 12.8594 138.162 12.8594H136.334V20H135.365V12H138.162C138.756 12 139.245 12.1081 139.631 12.3242C140.016 12.5404 140.303 12.8281 140.49 13.1875C140.678 13.5469 140.772 13.9427 140.772 14.375C140.772 14.8073 140.678 15.2031 140.49 15.5625C140.303 15.9219 140.016 16.2096 139.631 16.4258C139.245 16.6419 138.756 16.75 138.162 16.75ZM138.1 17.5V18.3594H134.1V17.5H138.1Z" fill="white"/>
<rect x="172" width="164" height="32" rx="16" fill="#494949"/>
<path d="M192.531 12.8594V12H198.531V12.8594H196.016V20H195.047V12.8594H192.531ZM199.038 22.25V14H199.929V14.9531H200.038C200.106 14.849 200.2 14.7161 200.32 14.5547C200.442 14.3906 200.616 14.2448 200.843 14.1172C201.072 13.987 201.382 13.9219 201.773 13.9219C202.278 13.9219 202.723 14.0482 203.109 14.3008C203.494 14.5534 203.795 14.9115 204.011 15.375C204.227 15.8385 204.335 16.3854 204.335 17.0156C204.335 17.651 204.227 18.2018 204.011 18.668C203.795 19.1315 203.495 19.4909 203.113 19.7461C202.73 19.9987 202.288 20.125 201.788 20.125C201.403 20.125 201.094 20.0612 200.863 19.9336C200.631 19.8034 200.452 19.6562 200.327 19.4922C200.202 19.3255 200.106 19.1875 200.038 19.0781H199.96V22.25H199.038ZM199.945 17C199.945 17.4531 200.011 17.8529 200.144 18.1992C200.277 18.543 200.471 18.8125 200.726 19.0078C200.981 19.2005 201.294 19.2969 201.663 19.2969C202.049 19.2969 202.37 19.1953 202.628 18.9922C202.889 18.7865 203.084 18.5104 203.214 18.1641C203.347 17.8151 203.413 17.4271 203.413 17C203.413 16.5781 203.348 16.1979 203.218 15.8594C203.09 15.5182 202.896 15.2487 202.636 15.0508C202.378 14.8503 202.054 14.75 201.663 14.75C201.288 14.75 200.973 14.8451 200.718 15.0352C200.463 15.2227 200.27 15.4857 200.14 15.8242C200.01 16.1602 199.945 16.5521 199.945 17ZM207.267 20.1406C206.887 20.1406 206.542 20.069 206.232 19.9258C205.922 19.7799 205.676 19.5703 205.494 19.2969C205.311 19.0208 205.22 18.6875 205.22 18.2969C205.22 17.9531 205.288 17.6745 205.423 17.4609C205.559 17.2448 205.74 17.0755 205.966 16.9531C206.193 16.8307 206.443 16.7396 206.716 16.6797C206.992 16.6172 207.27 16.5677 207.548 16.5313C207.913 16.4844 208.208 16.4492 208.435 16.4258C208.664 16.3997 208.831 16.3568 208.935 16.2969C209.042 16.237 209.095 16.1328 209.095 15.9844V15.9531C209.095 15.5677 208.99 15.2682 208.779 15.0547C208.57 14.8411 208.254 14.7344 207.83 14.7344C207.389 14.7344 207.044 14.8307 206.794 15.0234C206.544 15.2161 206.369 15.4219 206.267 15.6406L205.392 15.3281C205.548 14.9635 205.757 14.6797 206.017 14.4766C206.28 14.2708 206.567 14.1276 206.876 14.0469C207.189 13.9635 207.496 13.9219 207.798 13.9219C207.991 13.9219 208.212 13.9453 208.462 13.9922C208.715 14.0365 208.958 14.1289 209.193 14.2695C209.43 14.4102 209.626 14.6224 209.783 14.9062C209.939 15.1901 210.017 15.5703 210.017 16.0469V20H209.095V19.1875H209.048C208.986 19.3177 208.882 19.457 208.736 19.6055C208.59 19.7539 208.396 19.8802 208.154 19.9844C207.912 20.0885 207.616 20.1406 207.267 20.1406ZM207.408 19.3125C207.772 19.3125 208.08 19.2409 208.33 19.0977C208.582 18.9544 208.772 18.7695 208.9 18.543C209.03 18.3164 209.095 18.0781 209.095 17.8281V16.9844C209.056 17.0312 208.97 17.0742 208.837 17.1133C208.707 17.1497 208.556 17.1823 208.384 17.2109C208.215 17.237 208.05 17.2604 207.888 17.2812C207.729 17.2995 207.6 17.3151 207.501 17.3281C207.262 17.3594 207.038 17.4102 206.83 17.4805C206.624 17.5482 206.457 17.651 206.33 17.7891C206.205 17.9245 206.142 18.1094 206.142 18.3437C206.142 18.6641 206.261 18.9062 206.498 19.0703C206.737 19.2318 207.041 19.3125 207.408 19.3125ZM215.475 16.5781V17.4375H212.163V16.5781H215.475ZM212.382 14V20H211.46V14H212.382ZM216.178 14V20H215.257V14H216.178ZM220.06 20.125C219.497 20.125 219.013 19.9922 218.606 19.7266C218.2 19.4609 217.888 19.0951 217.669 18.6289C217.45 18.1628 217.341 17.6302 217.341 17.0312C217.341 16.4219 217.453 15.8841 217.677 15.418C217.903 14.9492 218.218 14.5833 218.622 14.3203C219.028 14.0547 219.502 13.9219 220.044 13.9219C220.466 13.9219 220.846 14 221.185 14.1562C221.523 14.3125 221.8 14.5312 222.017 14.8125C222.233 15.0937 222.367 15.4219 222.419 15.7969H221.497C221.427 15.5234 221.27 15.2812 221.028 15.0703C220.789 14.8568 220.466 14.75 220.06 14.75C219.7 14.75 219.385 14.8437 219.114 15.0312C218.846 15.2161 218.636 15.4779 218.485 15.8164C218.337 16.1523 218.263 16.5469 218.263 17C218.263 17.4635 218.336 17.8672 218.481 18.2109C218.63 18.5547 218.838 18.8216 219.106 19.0117C219.377 19.2018 219.695 19.2969 220.06 19.2969C220.299 19.2969 220.517 19.2552 220.712 19.1719C220.907 19.0885 221.073 18.9688 221.208 18.8125C221.343 18.6562 221.44 18.4687 221.497 18.25H222.419C222.367 18.6042 222.238 18.9232 222.032 19.207C221.829 19.4883 221.56 19.7122 221.224 19.8789C220.89 20.043 220.502 20.125 220.06 20.125ZM223.527 20V14H228.245V20H227.323V14.8594H224.448V20H223.527ZM232.126 20.125C231.585 20.125 231.109 19.9961 230.701 19.7383C230.294 19.4805 229.977 19.1198 229.748 18.6562C229.521 18.1927 229.408 17.651 229.408 17.0312C229.408 16.4062 229.521 15.8607 229.748 15.3945C229.977 14.9284 230.294 14.5664 230.701 14.3086C231.109 14.0508 231.585 13.9219 232.126 13.9219C232.668 13.9219 233.142 14.0508 233.548 14.3086C233.957 14.5664 234.275 14.9284 234.501 15.3945C234.731 15.8607 234.845 16.4062 234.845 17.0312C234.845 17.651 234.731 18.1927 234.501 18.6562C234.275 19.1198 233.957 19.4805 233.548 19.7383C233.142 19.9961 232.668 20.125 232.126 20.125ZM232.126 19.2969C232.538 19.2969 232.876 19.1914 233.142 18.9805C233.408 18.7695 233.604 18.4922 233.732 18.1484C233.859 17.8047 233.923 17.4323 233.923 17.0312C233.923 16.6302 233.859 16.2565 233.732 15.9102C233.604 15.5638 233.408 15.2839 233.142 15.0703C232.876 14.8568 232.538 14.75 232.126 14.75C231.715 14.75 231.376 14.8568 231.111 15.0703C230.845 15.2839 230.649 15.5638 230.521 15.9102C230.393 16.2565 230.33 16.6302 230.33 17.0312C230.33 17.4323 230.393 17.8047 230.521 18.1484C230.649 18.4922 230.845 18.7695 231.111 18.9805C231.376 19.1914 231.715 19.2969 232.126 19.2969ZM236.012 22.25V14H236.903V14.9531H237.012C237.08 14.849 237.174 14.7161 237.294 14.5547C237.416 14.3906 237.591 14.2448 237.817 14.1172C238.046 13.987 238.356 13.9219 238.747 13.9219C239.252 13.9219 239.697 14.0482 240.083 14.3008C240.468 14.5534 240.769 14.9115 240.985 15.375C241.201 15.8385 241.309 16.3854 241.309 17.0156C241.309 17.651 241.201 18.2018 240.985 18.668C240.769 19.1315 240.469 19.4909 240.087 19.7461C239.704 19.9987 239.262 20.125 238.762 20.125C238.377 20.125 238.068 20.0612 237.837 19.9336C237.605 19.8034 237.426 19.6562 237.301 19.4922C237.176 19.3255 237.08 19.1875 237.012 19.0781H236.934V22.25H236.012ZM236.919 17C236.919 17.4531 236.985 17.8529 237.118 18.1992C237.251 18.543 237.445 18.8125 237.7 19.0078C237.955 19.2005 238.268 19.2969 238.637 19.2969C239.023 19.2969 239.344 19.1953 239.602 18.9922C239.863 18.7865 240.058 18.5104 240.188 18.1641C240.321 17.8151 240.387 17.4271 240.387 17C240.387 16.5781 240.322 16.1979 240.192 15.8594C240.064 15.5182 239.87 15.2487 239.61 15.0508C239.352 14.8503 239.028 14.75 238.637 14.75C238.262 14.75 237.947 14.8451 237.692 15.0352C237.437 15.2227 237.244 15.4857 237.114 15.8242C236.984 16.1602 236.919 16.5521 236.919 17ZM241.691 14.8594V14H246.566V14.8594H244.598V20H243.676V14.8594H241.691ZM250.853 16C250.853 15.0156 250.981 14.1107 251.236 13.2852C251.494 12.457 251.861 11.6953 252.337 11H253.15C252.962 11.2578 252.787 11.5755 252.622 11.9531C252.461 12.3281 252.319 12.7409 252.197 13.1914C252.074 13.6393 251.978 14.1029 251.908 14.582C251.84 15.0612 251.806 15.5339 251.806 16C251.806 16.6198 251.866 17.2487 251.986 17.8867C252.106 18.5247 252.267 19.1172 252.47 19.6641C252.673 20.2109 252.9 20.6563 253.15 21H252.337C251.861 20.3047 251.494 19.5443 251.236 18.7187C250.981 17.8906 250.853 16.9844 250.853 16ZM256.911 20.1094C256.583 20.1042 256.255 20.0417 255.926 19.9219C255.598 19.8021 255.299 19.6003 255.028 19.3164C254.757 19.0299 254.54 18.6432 254.376 18.1562C254.212 17.6667 254.13 17.0521 254.13 16.3125C254.13 15.6042 254.196 14.9766 254.329 14.4297C254.462 13.8802 254.654 13.418 254.907 13.043C255.159 12.6654 255.464 12.3789 255.821 12.1836C256.18 11.9883 256.585 11.8906 257.036 11.8906C257.484 11.8906 257.882 11.9805 258.231 12.1602C258.583 12.3372 258.869 12.5846 259.09 12.9023C259.312 13.2201 259.455 13.5859 259.52 14H258.567C258.478 13.6406 258.307 13.3424 258.051 13.1055C257.796 12.8685 257.458 12.75 257.036 12.75C256.416 12.75 255.928 13.0195 255.571 13.5586C255.217 14.0977 255.038 14.8542 255.036 15.8281H255.098C255.244 15.6068 255.417 15.418 255.618 15.2617C255.821 15.1029 256.045 14.9805 256.29 14.8945C256.534 14.8086 256.794 14.7656 257.067 14.7656C257.525 14.7656 257.945 14.8802 258.325 15.1094C258.705 15.3359 259.01 15.6497 259.239 16.0508C259.468 16.4492 259.583 16.9062 259.583 17.4219C259.583 17.9167 259.472 18.3698 259.251 18.7812C259.029 19.1901 258.718 19.5156 258.317 19.7578C257.919 19.9974 257.45 20.1146 256.911 20.1094ZM256.911 19.25C257.239 19.25 257.533 19.168 257.794 19.0039C258.057 18.8398 258.264 18.6198 258.415 18.3437C258.568 18.0677 258.645 17.7604 258.645 17.4219C258.645 17.0911 258.571 16.7904 258.423 16.5195C258.277 16.2461 258.075 16.0286 257.817 15.8672C257.562 15.7057 257.27 15.625 256.942 15.625C256.695 15.625 256.464 15.6745 256.251 15.7734C256.037 15.8698 255.85 16.0026 255.688 16.1719C255.529 16.3411 255.404 16.5352 255.313 16.7539C255.222 16.9701 255.176 17.1979 255.176 17.4375C255.176 17.7552 255.251 18.0521 255.399 18.3281C255.55 18.6042 255.756 18.8268 256.016 18.9961C256.279 19.1654 256.577 19.25 256.911 19.25ZM264.957 18.5V18.0781C264.957 17.7865 265.017 17.5195 265.137 17.2773C265.259 17.0326 265.436 16.8372 265.668 16.6914C265.902 16.543 266.186 16.4687 266.519 16.4687C266.858 16.4687 267.142 16.543 267.371 16.6914C267.6 16.8372 267.773 17.0326 267.891 17.2773C268.008 17.5195 268.066 17.7865 268.066 18.0781V18.5C268.066 18.7917 268.006 19.0599 267.887 19.3047C267.769 19.5469 267.595 19.7422 267.363 19.8906C267.134 20.0365 266.853 20.1094 266.519 20.1094C266.181 20.1094 265.896 20.0365 265.664 19.8906C265.432 19.7422 265.256 19.5469 265.137 19.3047C265.017 19.0599 264.957 18.7917 264.957 18.5ZM265.754 18.0781V18.5C265.754 18.7422 265.811 18.9596 265.926 19.1523C266.04 19.3424 266.238 19.4375 266.519 19.4375C266.793 19.4375 266.986 19.3424 267.098 19.1523C267.212 18.9596 267.269 18.7422 267.269 18.5V18.0781C267.269 17.8359 267.215 17.6198 267.105 17.4297C266.996 17.237 266.801 17.1406 266.519 17.1406C266.246 17.1406 266.049 17.237 265.93 17.4297C265.812 17.6198 265.754 17.8359 265.754 18.0781ZM260.973 13.9219V13.5C260.973 13.2083 261.032 12.9414 261.152 12.6992C261.275 12.4544 261.452 12.2591 261.683 12.1133C261.918 11.9648 262.202 11.8906 262.535 11.8906C262.874 11.8906 263.157 11.9648 263.387 12.1133C263.616 12.2591 263.789 12.4544 263.906 12.6992C264.023 12.9414 264.082 13.2083 264.082 13.5V13.9219C264.082 14.2135 264.022 14.4818 263.902 14.7266C263.785 14.9687 263.611 15.1641 263.379 15.3125C263.15 15.4583 262.868 15.5312 262.535 15.5312C262.197 15.5312 261.911 15.4583 261.68 15.3125C261.448 15.1641 261.272 14.9687 261.152 14.7266C261.032 14.4818 260.973 14.2135 260.973 13.9219ZM261.769 13.5V13.9219C261.769 14.1641 261.827 14.3815 261.941 14.5742C262.056 14.7643 262.254 14.8594 262.535 14.8594C262.808 14.8594 263.001 14.7643 263.113 14.5742C263.228 14.3815 263.285 14.1641 263.285 13.9219V13.5C263.285 13.2578 263.23 13.0417 263.121 12.8516C263.012 12.6589 262.816 12.5625 262.535 12.5625C262.262 12.5625 262.065 12.6589 261.945 12.8516C261.828 13.0417 261.769 13.2578 261.769 13.5ZM261.269 20L266.769 12H267.66L262.16 20H261.269ZM271.561 16C271.561 16.9844 271.432 17.8906 271.174 18.7187C270.919 19.5443 270.553 20.3047 270.076 21H269.264C269.451 20.7422 269.626 20.4245 269.787 20.0469C269.951 19.6719 270.095 19.2604 270.217 18.8125C270.339 18.362 270.434 17.8971 270.502 17.418C270.572 16.9362 270.608 16.4635 270.608 16C270.608 15.3802 270.548 14.7513 270.428 14.1133C270.308 13.4753 270.147 12.8828 269.943 12.3359C269.74 11.7891 269.514 11.3437 269.264 11H270.076C270.553 11.6953 270.919 12.457 271.174 13.2852C271.432 14.1107 271.561 15.0156 271.561 16ZM278.842 18.3594V17.5625L282.357 12H282.935V13.2344H282.545L279.889 17.4375V17.5H284.623V18.3594H278.842ZM282.607 20V18.1172V17.7461V12H283.529V20H282.607ZM291.31 20.1094C290.721 20.1094 290.22 19.9492 289.806 19.6289C289.392 19.306 289.076 18.8385 288.857 18.2266C288.638 17.612 288.529 16.8698 288.529 16C288.529 15.1354 288.638 14.3971 288.857 13.7852C289.078 13.1706 289.396 12.7018 289.81 12.3789C290.227 12.0534 290.727 11.8906 291.31 11.8906C291.893 11.8906 292.392 12.0534 292.806 12.3789C293.223 12.7018 293.54 13.1706 293.759 13.7852C293.98 14.3971 294.091 15.1354 294.091 16C294.091 16.8698 293.982 17.612 293.763 18.2266C293.544 18.8385 293.228 19.306 292.814 19.6289C292.4 19.9492 291.898 20.1094 291.31 20.1094ZM291.31 19.25C291.893 19.25 292.346 18.9687 292.669 18.4062C292.992 17.8437 293.154 17.0417 293.154 16C293.154 15.3073 293.079 14.7174 292.931 14.2305C292.785 13.7435 292.574 13.3724 292.298 13.1172C292.025 12.862 291.695 12.7344 291.31 12.7344C290.732 12.7344 290.28 13.0195 289.954 13.5898C289.629 14.1576 289.466 14.9609 289.466 16C289.466 16.6927 289.539 17.2812 289.685 17.7656C289.831 18.25 290.04 18.6185 290.314 18.8711C290.59 19.1237 290.922 19.25 291.31 19.25ZM297.945 20.1094C297.356 20.1094 296.855 19.9492 296.441 19.6289C296.027 19.306 295.711 18.8385 295.492 18.2266C295.273 17.612 295.164 16.8698 295.164 16C295.164 15.1354 295.273 14.3971 295.492 13.7852C295.713 13.1706 296.031 12.7018 296.445 12.3789C296.862 12.0534 297.362 11.8906 297.945 11.8906C298.528 11.8906 299.027 12.0534 299.441 12.3789C299.858 12.7018 300.175 13.1706 300.394 13.7852C300.615 14.3971 300.726 15.1354 300.726 16C300.726 16.8698 300.617 17.612 300.398 18.2266C300.179 18.8385 299.863 19.306 299.449 19.6289C299.035 19.9492 298.533 20.1094 297.945 20.1094ZM297.945 19.25C298.528 19.25 298.981 18.9687 299.304 18.4062C299.627 17.8437 299.789 17.0417 299.789 16C299.789 15.3073 299.714 14.7174 299.566 14.2305C299.42 13.7435 299.209 13.3724 298.933 13.1172C298.66 12.862 298.33 12.7344 297.945 12.7344C297.367 12.7344 296.915 13.0195 296.589 13.5898C296.264 14.1576 296.101 14.9609 296.101 16C296.101 16.6927 296.174 17.2812 296.32 17.7656C296.466 18.25 296.675 18.6185 296.949 18.8711C297.225 19.1237 297.557 19.25 297.945 19.25ZM304.58 20.1094C303.991 20.1094 303.49 19.9492 303.076 19.6289C302.662 19.306 302.346 18.8385 302.127 18.2266C301.908 17.612 301.799 16.8698 301.799 16C301.799 15.1354 301.908 14.3971 302.127 13.7852C302.348 13.1706 302.666 12.7018 303.08 12.3789C303.497 12.0534 303.997 11.8906 304.58 11.8906C305.163 11.8906 305.662 12.0534 306.076 12.3789C306.493 12.7018 306.81 13.1706 307.029 13.7852C307.25 14.3971 307.361 15.1354 307.361 16C307.361 16.8698 307.252 17.612 307.033 18.2266C306.814 18.8385 306.498 19.306 306.084 19.6289C305.67 19.9492 305.168 20.1094 304.58 20.1094ZM304.58 19.25C305.163 19.25 305.616 18.9687 305.939 18.4062C306.262 17.8437 306.424 17.0417 306.424 16C306.424 15.3073 306.349 14.7174 306.201 14.2305C306.055 13.7435 305.844 13.3724 305.568 13.1172C305.295 12.862 304.965 12.7344 304.58 12.7344C304.002 12.7344 303.55 13.0195 303.224 13.5898C302.899 14.1576 302.736 14.9609 302.736 16C302.736 16.6927 302.809 17.2812 302.955 17.7656C303.101 18.25 303.31 18.6185 303.584 18.8711C303.86 19.1237 304.192 19.25 304.58 19.25ZM312.246 16.75H308.184V15.8906H312.246C312.621 15.8906 312.931 15.8255 313.176 15.6953C313.421 15.5625 313.603 15.3828 313.723 15.1562C313.842 14.9271 313.902 14.6667 313.902 14.375C313.902 14.0833 313.842 13.8242 313.723 13.5977C313.603 13.3685 313.421 13.1888 313.176 13.0586C312.931 12.9258 312.621 12.8594 312.246 12.8594H310.418V20H309.449V12H312.246C312.84 12 313.329 12.1081 313.715 12.3242C314.1 12.5404 314.387 12.8281 314.574 13.1875C314.762 13.5469 314.856 13.9427 314.856 14.375C314.856 14.8073 314.762 15.2031 314.574 15.5625C314.387 15.9219 314.1 16.2096 313.715 16.4258C313.329 16.6419 312.84 16.75 312.246 16.75ZM312.184 17.5V18.3594H308.184V17.5H312.184Z" fill="white"/>
<rect y="42" width="132" height="32" rx="16" fill="#787878"/>
<path d="M25.7031 54V62H24.7344V54H25.7031ZM20.2969 62L22.8906 57.8281L20.5156 54H21.6875L23.7656 57.5469H26.6875L28.7656 54H29.9375L27.5469 57.8438L30.1406 62H29.0313L26.8594 58.4531H23.5781L21.3906 62H20.2969ZM35.8733 62L33.1233 58.3281H32.1389V62H31.1702V54H32.1389V57.4687H32.5608L35.7639 54H36.9202L33.6858 57.5156L37.0295 62H35.8733ZM38.4634 62.1094V61.2031H38.9634C39.1561 61.2031 39.3175 61.1654 39.4477 61.0898C39.5805 61.0143 39.6899 60.9167 39.7759 60.7969C39.8644 60.6771 39.9373 60.5521 39.9946 60.4219L40.1196 60.125L37.354 54H38.4009L40.604 58.9687L42.6196 54H43.6509L40.8852 60.7031C40.7759 60.9531 40.6509 61.1849 40.5102 61.3984C40.3722 61.612 40.1834 61.7839 39.9438 61.9141C39.7068 62.0443 39.3852 62.1094 38.979 62.1094H38.4634ZM47.7226 58C47.7226 57.0156 47.8502 56.1107 48.1054 55.2852C48.3632 54.457 48.7304 53.6953 49.207 53H50.0195C49.832 53.2578 49.6562 53.5755 49.4921 53.9531C49.3307 54.3281 49.1888 54.7409 49.0664 55.1914C48.944 55.6393 48.8476 56.1029 48.7773 56.582C48.7096 57.0612 48.6757 57.5339 48.6757 58C48.6757 58.6198 48.7356 59.2487 48.8554 59.8867C48.9752 60.5247 49.1367 61.1172 49.3398 61.6641C49.5429 62.2109 49.7695 62.6563 50.0195 63H49.207C48.7304 62.3047 48.3632 61.5443 48.1054 60.7187C47.8502 59.8906 47.7226 58.9844 47.7226 58ZM50.9367 60.3594V59.5625L54.4523 54H55.0305V55.2344H54.6398L51.9836 59.4375V59.5H56.718V60.3594H50.9367ZM54.7023 62V60.1172V59.7461V54H55.6242V62H54.7023ZM62.02 60.5V60.0781C62.02 59.7865 62.0799 59.5195 62.1996 59.2773C62.322 59.0326 62.4991 58.8372 62.7309 58.6914C62.9653 58.543 63.2491 58.4687 63.5825 58.4687C63.921 58.4687 64.2049 58.543 64.434 58.6914C64.6632 58.8372 64.8364 59.0326 64.9536 59.2773C65.0707 59.5195 65.1293 59.7865 65.1293 60.0781V60.5C65.1293 60.7917 65.0694 61.0599 64.9497 61.3047C64.8325 61.5469 64.658 61.7422 64.4262 61.8906C64.197 62.0365 63.9158 62.1094 63.5825 62.1094C63.2439 62.1094 62.9588 62.0365 62.727 61.8906C62.4952 61.7422 62.3194 61.5469 62.1996 61.3047C62.0799 61.0599 62.02 60.7917 62.02 60.5ZM62.8168 60.0781V60.5C62.8168 60.7422 62.8741 60.9596 62.9887 61.1523C63.1033 61.3424 63.3012 61.4375 63.5825 61.4375C63.8559 61.4375 64.0486 61.3424 64.1606 61.1523C64.2752 60.9596 64.3325 60.7422 64.3325 60.5V60.0781C64.3325 59.8359 64.2778 59.6198 64.1684 59.4297C64.059 59.237 63.8637 59.1406 63.5825 59.1406C63.309 59.1406 63.1124 59.237 62.9926 59.4297C62.8754 59.6198 62.8168 59.8359 62.8168 60.0781ZM58.0356 55.9219V55.5C58.0356 55.2083 58.0955 54.9414 58.2153 54.6992C58.3377 54.4544 58.5148 54.2591 58.7465 54.1133C58.9809 53.9648 59.2648 53.8906 59.5981 53.8906C59.9366 53.8906 60.2205 53.9648 60.4496 54.1133C60.6788 54.2591 60.852 54.4544 60.9692 54.6992C61.0864 54.9414 61.145 55.2083 61.145 55.5V55.9219C61.145 56.2135 61.0851 56.4818 60.9653 56.7266C60.8481 56.9687 60.6736 57.1641 60.4418 57.3125C60.2127 57.4583 59.9314 57.5312 59.5981 57.5312C59.2595 57.5312 58.9744 57.4583 58.7426 57.3125C58.5108 57.1641 58.3351 56.9687 58.2153 56.7266C58.0955 56.4818 58.0356 56.2135 58.0356 55.9219ZM58.8325 55.5V55.9219C58.8325 56.1641 58.8898 56.3815 59.0043 56.5742C59.1189 56.7643 59.3168 56.8594 59.5981 56.8594C59.8715 56.8594 60.0642 56.7643 60.1762 56.5742C60.2908 56.3815 60.3481 56.1641 60.3481 55.9219V55.5C60.3481 55.2578 60.2934 55.0417 60.184 54.8516C60.0746 54.6589 59.8793 54.5625 59.5981 54.5625C59.3246 54.5625 59.128 54.6589 59.0082 54.8516C58.8911 55.0417 58.8325 55.2578 58.8325 55.5ZM58.3325 62L63.8325 54H64.7231L59.2231 62H58.3325ZM68.6237 58C68.6237 58.9844 68.4948 59.8906 68.237 60.7187C67.9818 61.5443 67.6159 62.3047 67.1393 63H66.3268C66.5143 62.7422 66.6888 62.4245 66.8503 62.0469C67.0143 61.6719 67.1576 61.2604 67.28 60.8125C67.4024 60.362 67.4974 59.8971 67.5651 59.418C67.6354 58.9362 67.6706 58.4635 67.6706 58C67.6706 57.3802 67.6107 56.7513 67.4909 56.1133C67.3711 55.4753 67.2096 54.8828 67.0065 54.3359C66.8034 53.7891 66.5768 53.3437 66.3268 53H67.1393C67.6159 53.6953 67.9818 54.457 68.237 55.2852C68.4948 56.1107 68.6237 57.0156 68.6237 58ZM76.0922 62V61.2969L78.7328 58.4062C79.0427 58.0677 79.2979 57.7734 79.4984 57.5234C79.699 57.2708 79.8474 57.0339 79.9437 56.8125C80.0427 56.5885 80.0922 56.3542 80.0922 56.1094C80.0922 55.8281 80.0245 55.5846 79.8891 55.3789C79.7562 55.1732 79.574 55.0143 79.3422 54.9023C79.1104 54.7904 78.85 54.7344 78.5609 54.7344C78.2536 54.7344 77.9854 54.7982 77.7562 54.9258C77.5297 55.0508 77.3539 55.2266 77.2289 55.4531C77.1065 55.6797 77.0453 55.9453 77.0453 56.25H76.1234C76.1234 55.7812 76.2315 55.3698 76.4477 55.0156C76.6638 54.6615 76.9581 54.3854 77.3305 54.1875C77.7055 53.9896 78.126 53.8906 78.5922 53.8906C79.0609 53.8906 79.4763 53.9896 79.8383 54.1875C80.2003 54.3854 80.4841 54.6523 80.6898 54.9883C80.8956 55.3242 80.9984 55.6979 80.9984 56.1094C80.9984 56.4036 80.9451 56.6914 80.8383 56.9727C80.7341 57.2513 80.5518 57.5625 80.2914 57.9062C80.0336 58.2474 79.6755 58.6641 79.2172 59.1562L77.4203 61.0781V61.1406H81.1391V62H76.0922ZM87.8661 62.1094C87.4078 62.1094 86.995 62.0182 86.6278 61.8359C86.2606 61.6536 85.9664 61.4036 85.745 61.0859C85.5236 60.7682 85.4026 60.4062 85.3817 60H86.3192C86.3557 60.362 86.5197 60.6615 86.8114 60.8984C87.1057 61.1328 87.4572 61.25 87.8661 61.25C88.1942 61.25 88.4859 61.1732 88.7411 61.0195C88.9989 60.8659 89.2007 60.6549 89.3466 60.3867C89.495 60.1159 89.5692 59.8099 89.5692 59.4687C89.5692 59.1198 89.4924 58.8086 89.3388 58.5352C89.1877 58.2591 88.9794 58.0417 88.7138 57.8828C88.4481 57.724 88.1447 57.6432 87.8036 57.6406C87.5588 57.638 87.3075 57.6758 87.0497 57.7539C86.7919 57.8294 86.5796 57.9271 86.413 58.0469L85.5067 57.9375L85.9911 54H90.1473V54.8594H86.8036L86.5223 57.2187H86.5692C86.7333 57.0885 86.939 56.9805 87.1864 56.8945C87.4338 56.8086 87.6916 56.7656 87.9598 56.7656C88.4494 56.7656 88.8856 56.8828 89.2684 57.1172C89.6539 57.349 89.9559 57.6667 90.1747 58.0703C90.396 58.474 90.5067 58.9349 90.5067 59.4531C90.5067 59.9635 90.3921 60.4193 90.163 60.8203C89.9364 61.2187 89.6239 61.5339 89.2255 61.7656C88.827 61.9948 88.3739 62.1094 87.8661 62.1094ZM91.8185 62V61.2969L94.4591 58.4062C94.769 58.0677 95.0242 57.7734 95.2247 57.5234C95.4252 57.2708 95.5737 57.0339 95.67 56.8125C95.769 56.5885 95.8185 56.3542 95.8185 56.1094C95.8185 55.8281 95.7508 55.5846 95.6153 55.3789C95.4825 55.1732 95.3002 55.0143 95.0685 54.9023C94.8367 54.7904 94.5763 54.7344 94.2872 54.7344C93.9799 54.7344 93.7117 54.7982 93.4825 54.9258C93.256 55.0508 93.0802 55.2266 92.9552 55.4531C92.8328 55.6797 92.7716 55.9453 92.7716 56.25H91.8497C91.8497 55.7812 91.9578 55.3698 92.1739 55.0156C92.3901 54.6615 92.6844 54.3854 93.0568 54.1875C93.4318 53.9896 93.8523 53.8906 94.3185 53.8906C94.7872 53.8906 95.2026 53.9896 95.5646 54.1875C95.9265 54.3854 96.2104 54.6523 96.4161 54.9883C96.6219 55.3242 96.7247 55.6979 96.7247 56.1094C96.7247 56.4036 96.6713 56.6914 96.5646 56.9727C96.4604 57.2513 96.2781 57.5625 96.0177 57.9062C95.7599 58.2474 95.4018 58.6641 94.9435 59.1562L93.1466 61.0781V61.1406H96.8653V62H91.8185ZM100.895 62.1094C100.567 62.1042 100.239 62.0417 99.9105 61.9219C99.5824 61.8021 99.2829 61.6003 99.0121 61.3164C98.7412 61.0299 98.5238 60.6432 98.3597 60.1562C98.1957 59.6667 98.1136 59.0521 98.1136 58.3125C98.1136 57.6042 98.18 56.9766 98.3129 56.4297C98.4457 55.8802 98.6384 55.418 98.891 55.043C99.1436 54.6654 99.4483 54.3789 99.805 54.1836C100.164 53.9883 100.569 53.8906 101.02 53.8906C101.468 53.8906 101.866 53.9805 102.215 54.1602C102.567 54.3372 102.853 54.5846 103.075 54.9023C103.296 55.2201 103.439 55.5859 103.504 56H102.551C102.463 55.6406 102.291 55.3424 102.036 55.1055C101.78 54.8685 101.442 54.75 101.02 54.75C100.4 54.75 99.9118 55.0195 99.555 55.5586C99.2009 56.0977 99.0225 56.8542 99.0199 57.8281H99.0824C99.2282 57.6068 99.4014 57.418 99.6019 57.2617C99.805 57.1029 100.029 56.9805 100.274 56.8945C100.519 56.8086 100.778 56.7656 101.051 56.7656C101.509 56.7656 101.929 56.8802 102.309 57.1094C102.689 57.3359 102.994 57.6497 103.223 58.0508C103.452 58.4492 103.567 58.9062 103.567 59.4219C103.567 59.9167 103.456 60.3698 103.235 60.7812C103.013 61.1901 102.702 61.5156 102.301 61.7578C101.903 61.9974 101.434 62.1146 100.895 62.1094ZM100.895 61.25C101.223 61.25 101.517 61.168 101.778 61.0039C102.041 60.8398 102.248 60.6198 102.399 60.3437C102.552 60.0677 102.629 59.7604 102.629 59.4219C102.629 59.0911 102.555 58.7904 102.407 58.5195C102.261 58.2461 102.059 58.0286 101.801 57.8672C101.546 57.7057 101.254 57.625 100.926 57.625C100.679 57.625 100.448 57.6745 100.235 57.7734C100.021 57.8698 99.8337 58.0026 99.6722 58.1719C99.5134 58.3411 99.3884 58.5352 99.2972 58.7539C99.2061 58.9701 99.1605 59.1979 99.1605 59.4375C99.1605 59.7552 99.2347 60.0521 99.3832 60.3281C99.5342 60.6042 99.7399 60.8268 100 60.9961C100.263 61.1654 100.562 61.25 100.895 61.25ZM108.504 58.75H104.441V57.8906H108.504C108.879 57.8906 109.188 57.8255 109.433 57.6953C109.678 57.5625 109.86 57.3828 109.98 57.1562C110.1 56.9271 110.16 56.6667 110.16 56.375C110.16 56.0833 110.1 55.8242 109.98 55.5977C109.86 55.3685 109.678 55.1888 109.433 55.0586C109.188 54.9258 108.879 54.8594 108.504 54.8594H106.675V62H105.707V54H108.504C109.097 54 109.587 54.1081 109.972 54.3242C110.358 54.5404 110.644 54.8281 110.832 55.1875C111.019 55.5469 111.113 55.9427 111.113 56.375C111.113 56.8073 111.019 57.2031 110.832 57.5625C110.644 57.9219 110.358 58.2096 109.972 58.4258C109.587 58.6419 109.097 58.75 108.504 58.75ZM108.441 59.5V60.3594H104.441V59.5H108.441Z" fill="white"/>
<rect x="142" y="42" width="147" height="32" rx="16" fill="#D1D1D1"/>
<path d="M168.953 54V62H167.984V54.8594H163.953V62H162.984V54H168.953ZM170.542 64.25V56H171.433V56.9531H171.542C171.61 56.849 171.704 56.7161 171.823 56.5547C171.946 56.3906 172.12 56.2448 172.347 56.1172C172.576 55.987 172.886 55.9219 173.277 55.9219C173.782 55.9219 174.227 56.0482 174.613 56.3008C174.998 56.5534 175.299 56.9115 175.515 57.375C175.731 57.8385 175.839 58.3854 175.839 59.0156C175.839 59.651 175.731 60.2018 175.515 60.668C175.299 61.1315 174.999 61.4909 174.616 61.7461C174.234 61.9987 173.792 62.125 173.292 62.125C172.907 62.125 172.598 62.0612 172.366 61.9336C172.135 61.8034 171.956 61.6562 171.831 61.4922C171.706 61.3255 171.61 61.1875 171.542 61.0781H171.464V64.25H170.542ZM171.448 59C171.448 59.4531 171.515 59.8529 171.648 60.1992C171.781 60.543 171.975 60.8125 172.23 61.0078C172.485 61.2005 172.797 61.2969 173.167 61.2969C173.553 61.2969 173.874 61.1953 174.132 60.9922C174.392 60.7865 174.588 60.5104 174.718 60.1641C174.851 59.8151 174.917 59.4271 174.917 59C174.917 58.5781 174.852 58.1979 174.722 57.8594C174.594 57.5182 174.4 57.2487 174.14 57.0508C173.882 56.8503 173.558 56.75 173.167 56.75C172.792 56.75 172.477 56.8451 172.222 57.0352C171.967 57.2227 171.774 57.4857 171.644 57.8242C171.514 58.1602 171.448 58.5521 171.448 59ZM179.443 62.125C178.901 62.125 178.426 61.9961 178.017 61.7383C177.611 61.4805 177.293 61.1198 177.064 60.6562C176.837 60.1927 176.724 59.651 176.724 59.0312C176.724 58.4062 176.837 57.8607 177.064 57.3945C177.293 56.9284 177.611 56.5664 178.017 56.3086C178.426 56.0508 178.901 55.9219 179.443 55.9219C179.985 55.9219 180.458 56.0508 180.865 56.3086C181.274 56.5664 181.591 56.9284 181.818 57.3945C182.047 57.8607 182.162 58.4062 182.162 59.0312C182.162 59.651 182.047 60.1927 181.818 60.6562C181.591 61.1198 181.274 61.4805 180.865 61.7383C180.458 61.9961 179.985 62.125 179.443 62.125ZM179.443 61.2969C179.854 61.2969 180.193 61.1914 180.458 60.9805C180.724 60.7695 180.921 60.4922 181.048 60.1484C181.176 59.8047 181.24 59.4323 181.24 59.0312C181.24 58.6302 181.176 58.2565 181.048 57.9102C180.921 57.5638 180.724 57.2839 180.458 57.0703C180.193 56.8568 179.854 56.75 179.443 56.75C179.031 56.75 178.693 56.8568 178.427 57.0703C178.162 57.2839 177.965 57.5638 177.837 57.9102C177.71 58.2565 177.646 58.6302 177.646 59.0312C177.646 59.4323 177.71 59.8047 177.837 60.1484C177.965 60.4922 178.162 60.7695 178.427 60.9805C178.693 61.1914 179.031 61.2969 179.443 61.2969ZM187.954 56V62H187.032V56H187.954ZM187.594 58.8594V59.7187C187.386 59.7969 187.179 59.8659 186.973 59.9258C186.768 59.9831 186.551 60.0286 186.325 60.0625C186.098 60.0937 185.85 60.1094 185.579 60.1094C184.899 60.1094 184.354 59.9258 183.942 59.5586C183.533 59.1914 183.329 58.6406 183.329 57.9062V55.9844H184.251V57.9062C184.251 58.2135 184.309 58.4661 184.426 58.6641C184.544 58.862 184.703 59.0091 184.903 59.1055C185.104 59.2018 185.329 59.25 185.579 59.25C185.969 59.25 186.322 59.2148 186.637 59.1445C186.955 59.0716 187.274 58.9766 187.594 58.8594ZM191.921 62.125C191.343 62.125 190.844 61.9974 190.425 61.7422C190.008 61.4844 189.686 61.125 189.46 60.6641C189.236 60.2005 189.124 59.6615 189.124 59.0469C189.124 58.4323 189.236 57.8906 189.46 57.4219C189.686 56.9505 190.002 56.5833 190.405 56.3203C190.811 56.0547 191.285 55.9219 191.827 55.9219C192.14 55.9219 192.448 55.974 192.753 56.0781C193.058 56.1823 193.335 56.3516 193.585 56.5859C193.835 56.8177 194.034 57.125 194.183 57.5078C194.331 57.8906 194.405 58.362 194.405 58.9219V59.3125H189.78V58.5156H193.468C193.468 58.1771 193.4 57.875 193.265 57.6094C193.132 57.3437 192.942 57.1341 192.694 56.9805C192.45 56.8268 192.16 56.75 191.827 56.75C191.46 56.75 191.142 56.8411 190.874 57.0234C190.608 57.2031 190.404 57.4375 190.261 57.7266C190.117 58.0156 190.046 58.3255 190.046 58.6562V59.1875C190.046 59.6406 190.124 60.0247 190.28 60.3398C190.439 60.6523 190.659 60.8906 190.94 61.0547C191.222 61.2161 191.548 61.2969 191.921 61.2969C192.163 61.2969 192.382 61.263 192.577 61.1953C192.775 61.125 192.946 61.0208 193.089 60.8828C193.232 60.7422 193.343 60.5677 193.421 60.3594L194.311 60.6094C194.218 60.9115 194.06 61.1771 193.839 61.4062C193.617 61.6328 193.344 61.8099 193.019 61.9375C192.693 62.0625 192.327 62.125 191.921 62.125ZM198.083 62.125C197.505 62.125 197.006 61.9974 196.587 61.7422C196.17 61.4844 195.849 61.125 195.622 60.6641C195.398 60.2005 195.286 59.6615 195.286 59.0469C195.286 58.4323 195.398 57.8906 195.622 57.4219C195.849 56.9505 196.164 56.5833 196.568 56.3203C196.974 56.0547 197.448 55.9219 197.989 55.9219C198.302 55.9219 198.611 55.974 198.915 56.0781C199.22 56.1823 199.497 56.3516 199.747 56.5859C199.997 56.8177 200.196 57.125 200.345 57.5078C200.493 57.8906 200.568 58.362 200.568 58.9219V59.3125H195.943V58.5156H199.63C199.63 58.1771 199.562 57.875 199.427 57.6094C199.294 57.3437 199.104 57.1341 198.857 56.9805C198.612 56.8268 198.323 56.75 197.989 56.75C197.622 56.75 197.305 56.8411 197.036 57.0234C196.771 57.2031 196.566 57.4375 196.423 57.7266C196.28 58.0156 196.208 58.3255 196.208 58.6562V59.1875C196.208 59.6406 196.286 60.0247 196.443 60.3398C196.601 60.6523 196.821 60.8906 197.103 61.0547C197.384 61.2161 197.711 61.2969 198.083 61.2969C198.325 61.2969 198.544 61.263 198.739 61.1953C198.937 61.125 199.108 61.0208 199.251 60.8828C199.394 60.7422 199.505 60.5677 199.583 60.3594L200.474 60.6094C200.38 60.9115 200.223 61.1771 200.001 61.4062C199.78 61.6328 199.506 61.8099 199.181 61.9375C198.855 62.0625 198.489 62.125 198.083 62.125ZM204.912 58C204.912 57.0156 205.039 56.1107 205.295 55.2852C205.552 54.457 205.92 53.6953 206.396 53H207.209C207.021 53.2578 206.845 53.5755 206.681 53.9531C206.52 54.3281 206.378 54.7409 206.256 55.1914C206.133 55.6393 206.037 56.1029 205.966 56.582C205.899 57.0612 205.865 57.5339 205.865 58C205.865 58.6198 205.925 59.2487 206.045 59.8867C206.164 60.5247 206.326 61.1172 206.529 61.6641C206.732 62.2109 206.959 62.6563 207.209 63H206.396C205.92 62.3047 205.552 61.5443 205.295 60.7187C205.039 59.8906 204.912 58.9844 204.912 58ZM210.876 62.1094C210.339 62.1094 209.865 62.0143 209.454 61.8242C209.045 61.6315 208.726 61.3672 208.497 61.0312C208.268 60.6927 208.155 60.3073 208.157 59.875C208.155 59.5365 208.221 59.224 208.356 58.9375C208.492 58.6484 208.677 58.4076 208.911 58.2148C209.148 58.0195 209.412 57.8958 209.704 57.8438V57.7969C209.321 57.6979 209.017 57.4831 208.79 57.1523C208.563 56.819 208.451 56.4401 208.454 56.0156C208.451 55.6094 208.554 55.2461 208.763 54.9258C208.971 54.6055 209.257 54.3529 209.622 54.168C209.989 53.9831 210.407 53.8906 210.876 53.8906C211.339 53.8906 211.754 53.9831 212.118 54.168C212.483 54.3529 212.769 54.6055 212.977 54.9258C213.188 55.2461 213.295 55.6094 213.298 56.0156C213.295 56.4401 213.179 56.819 212.95 57.1523C212.724 57.4831 212.423 57.6979 212.048 57.7969V57.8438C212.337 57.8958 212.597 58.0195 212.829 58.2148C213.061 58.4076 213.246 58.6484 213.384 58.9375C213.522 59.224 213.592 59.5365 213.595 59.875C213.592 60.3073 213.475 60.6927 213.243 61.0312C213.014 61.3672 212.695 61.6315 212.286 61.8242C211.88 62.0143 211.41 62.1094 210.876 62.1094ZM210.876 61.25C211.238 61.25 211.55 61.1914 211.813 61.0742C212.076 60.957 212.28 60.7917 212.423 60.5781C212.566 60.3646 212.639 60.1146 212.642 59.8281C212.639 59.526 212.561 59.2591 212.407 59.0273C212.254 58.7956 212.044 58.6133 211.778 58.4805C211.515 58.3477 211.214 58.2812 210.876 58.2812C210.535 58.2812 210.23 58.3477 209.962 58.4805C209.696 58.6133 209.487 58.7956 209.333 59.0273C209.182 59.2591 209.108 59.526 209.11 59.8281C209.108 60.1146 209.177 60.3646 209.317 60.5781C209.461 60.7917 209.665 60.957 209.931 61.0742C210.196 61.1914 210.511 61.25 210.876 61.25ZM210.876 57.4531C211.162 57.4531 211.416 57.3958 211.638 57.2812C211.862 57.1667 212.037 57.0065 212.165 56.8008C212.293 56.5951 212.358 56.3542 212.36 56.0781C212.358 55.8073 212.294 55.5716 212.169 55.3711C212.044 55.168 211.871 55.0117 211.649 54.9023C211.428 54.7904 211.17 54.7344 210.876 54.7344C210.576 54.7344 210.315 54.7904 210.091 54.9023C209.867 55.0117 209.694 55.168 209.571 55.3711C209.449 55.5716 209.389 55.8073 209.392 56.0781C209.389 56.3542 209.45 56.5951 209.575 56.8008C209.703 57.0065 209.879 57.1667 210.102 57.2812C210.326 57.3958 210.584 57.4531 210.876 57.4531ZM218.93 60.5V60.0781C218.93 59.7865 218.99 59.5195 219.11 59.2773C219.232 59.0326 219.409 58.8372 219.641 58.6914C219.875 58.543 220.159 58.4687 220.492 58.4687C220.831 58.4687 221.115 58.543 221.344 58.6914C221.573 58.8372 221.746 59.0326 221.863 59.2773C221.981 59.5195 222.039 59.7865 222.039 60.0781V60.5C222.039 60.7917 221.979 61.0599 221.86 61.3047C221.742 61.5469 221.568 61.7422 221.336 61.8906C221.107 62.0365 220.826 62.1094 220.492 62.1094C220.154 62.1094 219.869 62.0365 219.637 61.8906C219.405 61.7422 219.229 61.5469 219.11 61.3047C218.99 61.0599 218.93 60.7917 218.93 60.5ZM219.727 60.0781V60.5C219.727 60.7422 219.784 60.9596 219.899 61.1523C220.013 61.3424 220.211 61.4375 220.492 61.4375C220.766 61.4375 220.958 61.3424 221.07 61.1523C221.185 60.9596 221.242 60.7422 221.242 60.5V60.0781C221.242 59.8359 221.188 59.6198 221.078 59.4297C220.969 59.237 220.774 59.1406 220.492 59.1406C220.219 59.1406 220.022 59.237 219.903 59.4297C219.785 59.6198 219.727 59.8359 219.727 60.0781ZM214.945 55.9219V55.5C214.945 55.2083 215.005 54.9414 215.125 54.6992C215.248 54.4544 215.425 54.2591 215.656 54.1133C215.891 53.9648 216.175 53.8906 216.508 53.8906C216.847 53.8906 217.13 53.9648 217.36 54.1133C217.589 54.2591 217.762 54.4544 217.879 54.6992C217.996 54.9414 218.055 55.2083 218.055 55.5V55.9219C218.055 56.2135 217.995 56.4818 217.875 56.7266C217.758 56.9687 217.583 57.1641 217.352 57.3125C217.123 57.4583 216.841 57.5312 216.508 57.5312C216.169 57.5312 215.884 57.4583 215.653 57.3125C215.421 57.1641 215.245 56.9687 215.125 56.7266C215.005 56.4818 214.945 56.2135 214.945 55.9219ZM215.742 55.5V55.9219C215.742 56.1641 215.8 56.3815 215.914 56.5742C216.029 56.7643 216.227 56.8594 216.508 56.8594C216.781 56.8594 216.974 56.7643 217.086 56.5742C217.201 56.3815 217.258 56.1641 217.258 55.9219V55.5C217.258 55.2578 217.203 55.0417 217.094 54.8516C216.985 54.6589 216.789 54.5625 216.508 54.5625C216.235 54.5625 216.038 54.6589 215.918 54.8516C215.801 55.0417 215.742 55.2578 215.742 55.5ZM215.242 62L220.742 54H221.633L216.133 62H215.242ZM225.534 58C225.534 58.9844 225.405 59.8906 225.147 60.7187C224.892 61.5443 224.526 62.3047 224.049 63H223.237C223.424 62.7422 223.599 62.4245 223.76 62.0469C223.924 61.6719 224.067 61.2604 224.19 60.8125C224.312 60.362 224.407 59.8971 224.475 59.418C224.545 58.9362 224.58 58.4635 224.58 58C224.58 57.3802 224.521 56.7513 224.401 56.1133C224.281 55.4753 224.12 54.8828 223.916 54.3359C223.713 53.7891 223.487 53.3437 223.237 53H224.049C224.526 53.6953 224.892 54.457 225.147 55.2852C225.405 56.1107 225.534 57.0156 225.534 58ZM235.502 62.1094C235.044 62.1094 234.631 62.0182 234.264 61.8359C233.897 61.6536 233.602 61.4036 233.381 61.0859C233.16 60.7682 233.039 60.4062 233.018 60H233.955C233.992 60.362 234.156 60.6615 234.447 60.8984C234.742 61.1328 235.093 61.25 235.502 61.25C235.83 61.25 236.122 61.1732 236.377 61.0195C236.635 60.8659 236.837 60.6549 236.983 60.3867C237.131 60.1159 237.205 59.8099 237.205 59.4687C237.205 59.1198 237.128 58.8086 236.975 58.5352C236.824 58.2591 236.615 58.0417 236.35 57.8828C236.084 57.724 235.781 57.6432 235.44 57.6406C235.195 57.638 234.943 57.6758 234.686 57.7539C234.428 57.8294 234.216 57.9271 234.049 58.0469L233.143 57.9375L233.627 54H237.783V54.8594H234.44L234.158 57.2187H234.205C234.369 57.0885 234.575 56.9805 234.822 56.8945C235.07 56.8086 235.328 56.7656 235.596 56.7656C236.085 56.7656 236.522 56.8828 236.904 57.1172C237.29 57.349 237.592 57.6667 237.811 58.0703C238.032 58.474 238.143 58.9349 238.143 59.4531C238.143 59.9635 238.028 60.4193 237.799 60.8203C237.572 61.2187 237.26 61.5339 236.861 61.7656C236.463 61.9948 236.01 62.1094 235.502 62.1094ZM244.918 62.1094C244.329 62.1094 243.828 61.9492 243.414 61.6289C243 61.306 242.683 60.8385 242.464 60.2266C242.246 59.612 242.136 58.8698 242.136 58C242.136 57.1354 242.246 56.3971 242.464 55.7852C242.686 55.1706 243.004 54.7018 243.418 54.3789C243.834 54.0534 244.334 53.8906 244.918 53.8906C245.501 53.8906 246 54.0534 246.414 54.3789C246.83 54.7018 247.148 55.1706 247.367 55.7852C247.588 56.3971 247.699 57.1354 247.699 58C247.699 58.8698 247.589 59.612 247.371 60.2266C247.152 60.8385 246.836 61.306 246.421 61.6289C246.007 61.9492 245.506 62.1094 244.918 62.1094ZM244.918 61.25C245.501 61.25 245.954 60.9687 246.277 60.4062C246.6 59.8437 246.761 59.0417 246.761 58C246.761 57.3073 246.687 56.7174 246.539 56.2305C246.393 55.7435 246.182 55.3724 245.906 55.1172C245.632 54.862 245.303 54.7344 244.918 54.7344C244.339 54.7344 243.888 55.0195 243.562 55.5898C243.237 56.1576 243.074 56.9609 243.074 58C243.074 58.6927 243.147 59.2812 243.293 59.7656C243.438 60.25 243.648 60.6185 243.921 60.8711C244.198 61.1237 244.53 61.25 244.918 61.25ZM251.443 62.1094C250.985 62.1094 250.572 62.0182 250.205 61.8359C249.838 61.6536 249.543 61.4036 249.322 61.0859C249.101 60.7682 248.98 60.4062 248.959 60H249.896C249.933 60.362 250.097 60.6615 250.389 60.8984C250.683 61.1328 251.034 61.25 251.443 61.25C251.771 61.25 252.063 61.1732 252.318 61.0195C252.576 60.8659 252.778 60.6549 252.924 60.3867C253.072 60.1159 253.146 59.8099 253.146 59.4687C253.146 59.1198 253.07 58.8086 252.916 58.5352C252.765 58.2591 252.556 58.0417 252.291 57.8828C252.025 57.724 251.722 57.6432 251.381 57.6406C251.136 57.638 250.885 57.6758 250.627 57.7539C250.369 57.8294 250.157 57.9271 249.99 58.0469L249.084 57.9375L249.568 54H253.724V54.8594H250.381L250.099 57.2187H250.146C250.31 57.0885 250.516 56.9805 250.764 56.8945C251.011 56.8086 251.269 56.7656 251.537 56.7656C252.027 56.7656 252.463 56.8828 252.846 57.1172C253.231 57.349 253.533 57.6667 253.752 58.0703C253.973 58.474 254.084 58.9349 254.084 59.4531C254.084 59.9635 253.969 60.4193 253.74 60.8203C253.514 61.2187 253.201 61.5339 252.803 61.7656C252.404 61.9948 251.951 62.1094 251.443 62.1094ZM255.396 62V61.2969L258.036 58.4062C258.346 58.0677 258.601 57.7734 258.802 57.5234C259.002 57.2708 259.151 57.0339 259.247 56.8125C259.346 56.5885 259.396 56.3542 259.396 56.1094C259.396 55.8281 259.328 55.5846 259.192 55.3789C259.06 55.1732 258.877 55.0143 258.646 54.9023C258.414 54.7904 258.153 54.7344 257.864 54.7344C257.557 54.7344 257.289 54.7982 257.06 54.9258C256.833 55.0508 256.657 55.2266 256.532 55.4531C256.41 55.6797 256.349 55.9453 256.349 56.25H255.427C255.427 55.7812 255.535 55.3698 255.751 55.0156C255.967 54.6615 256.261 54.3854 256.634 54.1875C257.009 53.9896 257.429 53.8906 257.896 53.8906C258.364 53.8906 258.78 53.9896 259.142 54.1875C259.504 54.3854 259.788 54.6523 259.993 54.9883C260.199 55.3242 260.302 55.6979 260.302 56.1094C260.302 56.4036 260.248 56.6914 260.142 56.9727C260.038 57.2513 259.855 57.5625 259.595 57.9062C259.337 58.2474 258.979 58.6641 258.521 59.1562L256.724 61.0781V61.1406H260.442V62H255.396ZM265.456 58.75H261.394V57.8906H265.456C265.831 57.8906 266.141 57.8255 266.386 57.6953C266.631 57.5625 266.813 57.3828 266.933 57.1562C267.053 56.9271 267.113 56.6667 267.113 56.375C267.113 56.0833 267.053 55.8242 266.933 55.5977C266.813 55.3685 266.631 55.1888 266.386 55.0586C266.141 54.9258 265.831 54.8594 265.456 54.8594H263.628V62H262.659V54H265.456C266.05 54 266.54 54.1081 266.925 54.3242C267.311 54.5404 267.597 54.8281 267.784 55.1875C267.972 55.5469 268.066 55.9427 268.066 56.375C268.066 56.8073 267.972 57.2031 267.784 57.5625C267.597 57.9219 267.311 58.2096 266.925 58.4258C266.54 58.6419 266.05 58.75 265.456 58.75ZM265.394 59.5V60.3594H261.394V59.5H265.394Z" fill="#494949"/>
</svg>
