<svg width="30" height="30" viewBox="0 0 30 30" fill="none" xmlns="http://www.w3.org/2000/svg">
<rect width="30" height="30" rx="10" fill="#B9E937"/>
<path d="M13.998 6.91741C14.2733 6.67004 14.6304 6.5332 15.0005 6.5332C15.3706 6.5332 15.7277 6.67004 16.003 6.91741L21.503 11.8594C21.6594 12 21.7844 12.172 21.8701 12.3641C21.9557 12.5562 22 12.7641 22 12.9744V13.9304C21.6907 13.7519 21.3521 13.6299 21 13.5704V12.9744C20.9998 12.9044 20.985 12.8352 20.9564 12.7713C20.9278 12.7074 20.8861 12.6502 20.834 12.6034L15.334 7.66141C15.2422 7.57905 15.1233 7.53349 15 7.53349C14.8767 7.53349 14.7578 7.57905 14.666 7.66141L9.166 12.6034C9.1139 12.6502 9.0722 12.7074 9.0436 12.7713C9.01501 12.8352 9.00015 12.9044 9 12.9744V20.0294C9 20.162 9.05268 20.2892 9.14645 20.383C9.24021 20.4767 9.36739 20.5294 9.5 20.5294H12C12.1326 20.5294 12.2598 20.4767 12.3536 20.383C12.4473 20.2892 12.5 20.162 12.5 20.0294V16.5294C12.5 16.1316 12.658 15.7501 12.9393 15.4688C13.2206 15.1874 13.6022 15.0294 14 15.0294H16C16.3978 15.0294 16.7794 15.1874 17.0607 15.4688C17.342 15.7501 17.5 16.1316 17.5 16.5294V18.7364C17.1038 18.9095 16.7592 19.1824 16.5 19.5284V16.5284C16.5 16.3958 16.4473 16.2686 16.3536 16.1749C16.2598 16.0811 16.1326 16.0284 16 16.0284H14C13.8674 16.0284 13.7402 16.0811 13.6464 16.1749C13.5527 16.2686 13.5 16.3958 13.5 16.5284V20.0284C13.5001 20.2255 13.4614 20.4206 13.3861 20.6027C13.3108 20.7848 13.2003 20.9503 13.061 21.0897C12.9217 21.2291 12.7563 21.3397 12.5743 21.4151C12.3922 21.4906 12.1971 21.5294 12 21.5294H9.5C9.10218 21.5294 8.72064 21.3714 8.43934 21.0901C8.15804 20.8088 8 20.4272 8 20.0294V12.9754C8 12.5504 8.18 12.1454 8.498 11.8604L13.998 6.91741ZM22.5 16.5294C22.5 17.0598 22.2893 17.5686 21.9142 17.9436C21.5391 18.3187 21.0304 18.5294 20.5 18.5294C19.9696 18.5294 19.4609 18.3187 19.0858 17.9436C18.7107 17.5686 18.5 17.0598 18.5 16.5294C18.5 15.999 18.7107 15.4903 19.0858 15.1152C19.4609 14.7401 19.9696 14.5294 20.5 14.5294C21.0304 14.5294 21.5391 14.7401 21.9142 15.1152C22.2893 15.4903 22.5 15.999 22.5 16.5294ZM24 21.0294C24 22.2744 23 23.5294 20.5 23.5294C18 23.5294 17 22.2794 17 21.0294C17 20.6316 17.158 20.2501 17.4393 19.9688C17.7206 19.6874 18.1022 19.5294 18.5 19.5294H22.5C22.8978 19.5294 23.2794 19.6874 23.5607 19.9688C23.842 20.2501 24 20.6316 24 21.0294Z" fill="black"/>
</svg>
