<svg width="30" height="30" viewBox="0 0 30 30" fill="none" xmlns="http://www.w3.org/2000/svg">
<rect width="30" height="30" rx="10" fill="#ACE6F6"/>
<path d="M10 10.5879C10 10.3227 10.1054 10.0683 10.2929 9.88078C10.4804 9.69325 10.7348 9.58789 11 9.58789H13C13.2652 9.58789 13.5196 9.69325 13.7071 9.88078C13.8946 10.0683 14 10.3227 14 10.5879V12.5879C14 12.8531 13.8946 13.1075 13.7071 13.295C13.5196 13.4825 13.2652 13.5879 13 13.5879H11C10.7348 13.5879 10.4804 13.4825 10.2929 13.295C10.1054 13.1075 10 12.8531 10 12.5879V10.5879ZM13 10.5879H11V12.5879H13V10.5879ZM10 16.5879C10 16.3227 10.1054 16.0683 10.2929 15.8808C10.4804 15.6932 10.7348 15.5879 11 15.5879H13C13.2652 15.5879 13.5196 15.6932 13.7071 15.8808C13.8946 16.0683 14 16.3227 14 16.5879V18.5879C14 18.8531 13.8946 19.1075 13.7071 19.295C13.5196 19.4825 13.2652 19.5879 13 19.5879H11C10.7348 19.5879 10.4804 19.4825 10.2929 19.295C10.1054 19.1075 10 18.8531 10 18.5879V16.5879ZM13 16.5879H11V18.5879H13V16.5879ZM17 9.58789C16.7348 9.58789 16.4804 9.69325 16.2929 9.88078C16.1054 10.0683 16 10.3227 16 10.5879V12.5879C16 12.8531 16.1054 13.1075 16.2929 13.295C16.4804 13.4825 16.7348 13.5879 17 13.5879H19C19.2652 13.5879 19.5196 13.4825 19.7071 13.295C19.8946 13.1075 20 12.8531 20 12.5879V10.5879C20 10.3227 19.8946 10.0683 19.7071 9.88078C19.5196 9.69325 19.2652 9.58789 19 9.58789H17ZM17 10.5879H19V12.5879H17V10.5879ZM16 16.5879C16 16.3227 16.1054 16.0683 16.2929 15.8808C16.4804 15.6932 16.7348 15.5879 17 15.5879H19C19.2652 15.5879 19.5196 15.6932 19.7071 15.8808C19.8946 16.0683 20 16.3227 20 16.5879V18.5879C20 18.8531 19.8946 19.1075 19.7071 19.295C19.5196 19.4825 19.2652 19.5879 19 19.5879H17C16.7348 19.5879 16.4804 19.4825 16.2929 19.295C16.1054 19.1075 16 18.8531 16 18.5879V16.5879ZM19 16.5879H17V18.5879H19V16.5879ZM10 6.58789C9.20435 6.58789 8.44129 6.90396 7.87868 7.46657C7.31607 8.02918 7 8.79224 7 9.58789V19.5879C7 20.3835 7.31607 21.1466 7.87868 21.7092C8.44129 22.2718 9.20435 22.5879 10 22.5879H20C20.7956 22.5879 21.5587 22.2718 22.1213 21.7092C22.6839 21.1466 23 20.3835 23 19.5879V9.58789C23 8.79224 22.6839 8.02918 22.1213 7.46657C21.5587 6.90396 20.7956 6.58789 20 6.58789H10ZM8 9.58789C8 9.05746 8.21071 8.54875 8.58579 8.17368C8.96086 7.7986 9.46957 7.58789 10 7.58789H20C20.5304 7.58789 21.0391 7.7986 21.4142 8.17368C21.7893 8.54875 22 9.05746 22 9.58789V19.5879C22 20.1183 21.7893 20.627 21.4142 21.0021C21.0391 21.3772 20.5304 21.5879 20 21.5879H10C9.46957 21.5879 8.96086 21.3772 8.58579 21.0021C8.21071 20.627 8 20.1183 8 19.5879V9.58789Z" fill="black"/>
</svg>
