<svg width="30" height="30" viewBox="0 0 30 30" fill="none" xmlns="http://www.w3.org/2000/svg">
<rect width="30" height="30" rx="10" fill="#C9FFC7"/>
<path d="M13.5 10.7051C13.106 10.7051 12.7159 10.7827 12.3519 10.9334C11.988 11.0842 11.6573 11.3052 11.3787 11.5838C11.1001 11.8623 10.8791 12.1931 10.7284 12.557C10.5776 12.921 10.5 13.3111 10.5 13.7051C10.5 14.099 10.5776 14.4892 10.7284 14.8531C10.8791 15.2171 11.1001 15.5478 11.3787 15.8264C11.6573 16.105 11.988 16.326 12.3519 16.4767C12.7159 16.6275 13.106 16.7051 13.5 16.7051C14.2956 16.7051 15.0587 16.389 15.6213 15.8264C16.1839 15.2638 16.5 14.5007 16.5 13.7051C16.5 12.9094 16.1839 12.1464 15.6213 11.5838C15.0587 11.0211 14.2956 10.7051 13.5 10.7051ZM12 13.7051C12 13.3073 12.158 12.9257 12.4393 12.6444C12.7206 12.3631 13.1022 12.2051 13.5 12.2051C13.8978 12.2051 14.2794 12.3631 14.5607 12.6444C14.842 12.9257 15 13.3073 15 13.7051C15 14.1029 14.842 14.4844 14.5607 14.7657C14.2794 15.047 13.8978 15.2051 13.5 15.2051C13.1022 15.2051 12.7206 15.047 12.4393 14.7657C12.158 14.4844 12 14.1029 12 13.7051ZM5 9.95508C5 9.35834 5.23705 8.78604 5.65901 8.36409C6.08097 7.94213 6.65326 7.70508 7.25 7.70508H19.75C20.0455 7.70508 20.3381 7.76328 20.611 7.87635C20.884 7.98942 21.1321 8.15516 21.341 8.36409C21.5499 8.57302 21.7157 8.82106 21.8287 9.09404C21.9418 9.36702 22 9.6596 22 9.95508V17.4551C22 17.7506 21.9418 18.0431 21.8287 18.3161C21.7157 18.5891 21.5499 18.8371 21.341 19.0461C21.1321 19.255 20.884 19.4207 20.611 19.5338C20.3381 19.6469 20.0455 19.7051 19.75 19.7051H7.25C6.65326 19.7051 6.08097 19.468 5.65901 19.0461C5.23705 18.6241 5 18.0518 5 17.4551V9.95508ZM7.25 9.20508C7.05109 9.20508 6.86032 9.2841 6.71967 9.42475C6.57902 9.5654 6.5 9.75617 6.5 9.95508V10.7051H7.25C7.44891 10.7051 7.63968 10.6261 7.78033 10.4854C7.92098 10.3448 8 10.154 8 9.95508V9.20508H7.25ZM6.5 15.2051H7.25C7.84674 15.2051 8.41903 15.4421 8.84099 15.8641C9.26295 16.286 9.5 16.8583 9.5 17.4551V18.2051H17.5V17.4551C17.5 16.8583 17.7371 16.286 18.159 15.8641C18.581 15.4421 19.1533 15.2051 19.75 15.2051H20.5V12.2051H19.75C19.1533 12.2051 18.581 11.968 18.159 11.5461C17.7371 11.1241 17.5 10.5518 17.5 9.95508V9.20508H9.5V9.95508C9.5 10.2506 9.4418 10.5431 9.32873 10.8161C9.21566 11.0891 9.04992 11.3371 8.84099 11.5461C8.63206 11.755 8.38402 11.9207 8.11104 12.0338C7.83806 12.1469 7.54547 12.2051 7.25 12.2051H6.5V15.2051ZM20.5 10.7051V9.95508C20.5 9.75617 20.421 9.5654 20.2803 9.42475C20.1397 9.2841 19.9489 9.20508 19.75 9.20508H19V9.95508C19 10.3691 19.336 10.7051 19.75 10.7051H20.5ZM20.5 16.7051H19.75C19.5511 16.7051 19.3603 16.7841 19.2197 16.9247C19.079 17.0654 19 17.2562 19 17.4551V18.2051H19.75C19.9489 18.2051 20.1397 18.1261 20.2803 17.9854C20.421 17.8448 20.5 17.654 20.5 17.4551V16.7051ZM6.5 17.4551C6.5 17.8691 6.836 18.2051 7.25 18.2051H8V17.4551C8 17.2562 7.92098 17.0654 7.78033 16.9247C7.63968 16.7841 7.44891 16.7051 7.25 16.7051H6.5V17.4551ZM7.401 21.2051C7.66438 21.6613 8.04324 22.0401 8.49948 22.3034C8.95571 22.5667 9.47323 22.7052 10 22.7051H20.25C20.8738 22.7051 21.4915 22.5822 22.0677 22.3435C22.644 22.1048 23.1677 21.7549 23.6088 21.3138C24.0498 20.8728 24.3997 20.3491 24.6384 19.7728C24.8771 19.1965 25 18.5789 25 17.9551V12.7051C25.0002 12.1783 24.8616 11.6608 24.5983 11.2046C24.335 10.7483 23.9562 10.3695 23.5 10.1061V17.9551C23.5 18.817 23.1576 19.6437 22.5481 20.2532C21.9386 20.8627 21.112 21.2051 20.25 21.2051H7.401Z" fill="black"/>
</svg>
