<svg width="30" height="30" viewBox="0 0 30 30" fill="none" xmlns="http://www.w3.org/2000/svg">
<rect width="30" height="30" rx="10" fill="#C9FFC7"/>
<path d="M11 8.41211C10.2044 8.41211 9.44129 8.72818 8.87868 9.29079C8.31607 9.8534 8 10.6165 8 11.4121V19.4121C8 20.2078 8.31607 20.9708 8.87868 21.5334C9.44129 22.096 10.2044 22.4121 11 22.4121H15.92L15.041 21.5271L14.932 21.4121H11C10.4696 21.4121 9.96086 21.2014 9.58579 20.8263C9.21071 20.4512 9 19.9425 9 19.4121V13.4701L14.5 13.4171V17.1631C14.7543 16.7345 15.0948 16.3633 15.5 16.0731V9.41211H19C19.5304 9.41211 20.0391 9.62282 20.4142 9.9979C20.7893 10.373 21 10.8817 21 11.4121V15.4391C21.332 15.3981 21.67 15.4041 22 15.4571V11.4121C22 10.6165 21.6839 9.8534 21.1213 9.29079C20.5587 8.72818 19.7956 8.41211 19 8.41211H11ZM9 11.4121C9 10.8817 9.21071 10.373 9.58579 9.9979C9.96086 9.62282 10.4696 9.41211 11 9.41211H14.5V12.4171L9 12.4701V11.4121ZM22 16.4751C22.4742 16.5822 22.9077 16.823 23.249 17.1691C23.7293 17.6557 23.9986 18.3119 23.9986 18.9956C23.9986 19.6793 23.7293 20.3355 23.249 20.8221L19.818 24.2791C19.7336 24.3634 19.6193 24.4107 19.5 24.4107C19.3807 24.4107 19.2664 24.3634 19.182 24.2791L15.75 20.8221C15.2694 20.3355 14.9999 19.6791 14.9999 18.9951C14.9999 18.3112 15.2694 17.6547 15.75 17.1681C15.9871 16.9283 16.2695 16.738 16.5807 16.6081C16.8919 16.4782 17.2258 16.4113 17.563 16.4113C17.9002 16.4113 18.2341 16.4782 18.5453 16.6081C18.8565 16.738 19.1389 16.9283 19.376 17.1681L19.499 17.2921L19.622 17.1691C19.9267 16.8609 20.305 16.6354 20.7211 16.5139C21.1371 16.3925 21.5773 16.3792 22 16.4751Z" fill="black"/>
</svg>
