<svg width="30" height="30" viewBox="0 0 30 30" fill="none" xmlns="http://www.w3.org/2000/svg">
<rect width="30" height="30" rx="10" fill="#FFEE7D"/>
<path d="M14 8.94141C13.8674 8.94141 13.7402 8.99408 13.6464 9.08785C13.5527 9.18162 13.5 9.3088 13.5 9.44141C13.5 9.57401 13.5527 9.70119 13.6464 9.79496C13.7402 9.88873 13.8674 9.94141 14 9.94141H16C16.1326 9.94141 16.2598 9.88873 16.3536 9.79496C16.4473 9.70119 16.5 9.57401 16.5 9.44141C16.5 9.3088 16.4473 9.18162 16.3536 9.08785C16.2598 8.99408 16.1326 8.94141 16 8.94141H14ZM13 17.9414C13 18.2066 12.8946 18.461 12.7071 18.6485C12.5196 18.836 12.2652 18.9414 12 18.9414C11.7348 18.9414 11.4804 18.836 11.2929 18.6485C11.1054 18.461 11 18.2066 11 17.9414C11 17.6762 11.1054 17.4218 11.2929 17.2343C11.4804 17.0468 11.7348 16.9414 12 16.9414C12.2652 16.9414 12.5196 17.0468 12.7071 17.2343C12.8946 17.4218 13 17.6762 13 17.9414ZM18 18.9414C18.2652 18.9414 18.5196 18.836 18.7071 18.6485C18.8946 18.461 19 18.2066 19 17.9414C19 17.6762 18.8946 17.4218 18.7071 17.2343C18.5196 17.0468 18.2652 16.9414 18 16.9414C17.7348 16.9414 17.4804 17.0468 17.2929 17.2343C17.1054 17.4218 17 17.6762 17 17.9414C17 18.2066 17.1054 18.461 17.2929 18.6485C17.4804 18.836 17.7348 18.9414 18 18.9414ZM8 10.4414C8 9.51315 8.36875 8.62291 9.02513 7.96653C9.6815 7.31016 10.5717 6.94141 11.5 6.94141H18.5C19.4283 6.94141 20.3185 7.31016 20.9749 7.96653C21.6313 8.62291 22 9.51315 22 10.4414V12.9414H23C23.1326 12.9414 23.2598 12.9941 23.3536 13.0879C23.4473 13.1816 23.5 13.3088 23.5 13.4414C23.5 13.574 23.4473 13.7012 23.3536 13.795C23.2598 13.8887 23.1326 13.9414 23 13.9414H22V21.4414C22 21.8392 21.842 22.2208 21.5607 22.5021C21.2794 22.7834 20.8978 22.9414 20.5 22.9414H19.5C19.1022 22.9414 18.7206 22.7834 18.4393 22.5021C18.158 22.2208 18 21.8392 18 21.4414V20.9414H12V21.4414C12 21.8392 11.842 22.2208 11.5607 22.5021C11.2794 22.7834 10.8978 22.9414 10.5 22.9414H9.5C9.10218 22.9414 8.72064 22.7834 8.43934 22.5021C8.15804 22.2208 8 21.8392 8 21.4414V13.9414H7C6.86739 13.9414 6.74021 13.8887 6.64645 13.795C6.55268 13.7012 6.5 13.574 6.5 13.4414C6.5 13.3088 6.55268 13.1816 6.64645 13.0879C6.74021 12.9941 6.86739 12.9414 7 12.9414H8V10.4414ZM21 10.4414C21 9.77837 20.7366 9.14248 20.2678 8.67364C19.7989 8.2048 19.163 7.94141 18.5 7.94141H11.5C10.837 7.94141 10.2011 8.2048 9.73223 8.67364C9.26339 9.14248 9 9.77837 9 10.4414V14.9414H21V10.4414ZM19 20.9414V21.4414C19 21.574 19.0527 21.7012 19.1464 21.795C19.2402 21.8887 19.3674 21.9414 19.5 21.9414H20.5C20.6326 21.9414 20.7598 21.8887 20.8536 21.795C20.9473 21.7012 21 21.574 21 21.4414V20.9414H19ZM9 20.9414V21.4414C9 21.574 9.05268 21.7012 9.14645 21.795C9.24021 21.8887 9.36739 21.9414 9.5 21.9414H10.5C10.6326 21.9414 10.7598 21.8887 10.8536 21.795C10.9473 21.7012 11 21.574 11 21.4414V20.9414H9ZM9 19.9414H21V15.9414H9V19.9414Z" fill="black"/>
</svg>
